<?xml version="1.0" encoding="UTF-8"?>
<svg version="1.1" xmlns="http://www.w3.org/2000/svg" width="1024" height="1024">
<path d="M0 0 C337.92 0 675.84 0 1024 0 C1024 337.92 1024 675.84 1024 1024 C686.08 1024 348.16 1024 0 1024 C0 686.08 0 348.16 0 0 Z " fill="#F8F8F8" transform="translate(0,0)"/>
<path d="M0 0 C0.85687916 -0.00382555 1.71375832 -0.00765109 2.59660351 -0.01159257 C5.46690011 -0.02190854 8.33699614 -0.01793306 11.20730591 -0.01396179 C13.26562688 -0.01830906 15.32394624 -0.02349225 17.38226318 -0.02944946 C22.97318611 -0.04284958 28.56404147 -0.04341696 34.15497732 -0.04088616 C38.82202039 -0.03981707 43.48904976 -0.04469827 48.1560899 -0.04949158 C59.1666619 -0.06059042 70.17719978 -0.06102215 81.18777466 -0.05497742 C92.54682856 -0.04893725 103.9057586 -0.06124892 115.26479137 -0.08254749 C125.01694589 -0.1001608 134.76906098 -0.10616524 144.52123082 -0.10290974 C150.34585189 -0.10109621 156.17038463 -0.10374006 161.9949913 -0.11762428 C167.47300263 -0.13019343 172.95082085 -0.12826705 178.42882919 -0.11521339 C180.43836533 -0.11284603 182.44791501 -0.11558801 184.45743561 -0.12383652 C187.20280497 -0.1342921 189.947525 -0.12621275 192.69287109 -0.11352539 C193.88281907 -0.12458682 193.88281907 -0.12458682 195.09680641 -0.13587171 C202.31850725 -0.06576689 208.25061597 2.03789319 213.47341919 7.26069641 C217.7235936 14.06225335 218.05265925 19.60468411 218.00686646 27.51655579 C218.01548203 28.72406998 218.0240976 29.93158417 218.03297424 31.1756897 C218.05170831 34.46717572 218.05255645 37.75802242 218.04365277 41.04953194 C218.03851982 43.80544105 218.0458539 46.56126115 218.05312485 49.31716108 C218.07008659 55.82169443 218.06659521 62.32599296 218.04983521 68.83052063 C218.03290929 75.52452014 218.04876256 82.21786774 218.08105808 88.91179609 C218.10780681 94.67599014 218.11501608 100.4399819 218.106543 106.20423174 C218.10163004 109.63959769 218.10374017 113.07457147 218.12433052 116.5098877 C218.1417767 120.3420191 218.12723024 124.17276116 218.10452271 128.00483704 C218.1162149 129.13234879 218.1279071 130.25986053 218.13995361 131.42153931 C218.05700741 138.31214769 217.00008178 142.9489211 212.47341919 148.26069641 C209.91091919 150.63569641 209.91091919 150.63569641 207.47341919 152.26069641 C206.93912292 152.61952911 206.40482666 152.97836182 205.8543396 153.34806824 C202.2760999 154.71963965 198.71892762 154.52134588 194.94119263 154.48774719 C193.65284515 154.48818527 193.65284515 154.48818527 192.33847046 154.4886322 C189.50314182 154.48724029 186.66807686 154.47168555 183.83279419 154.45600891 C181.86553084 154.45227829 179.89826563 154.44943155 177.93099976 154.44743347 C172.75571555 154.43980089 167.58054377 154.42015555 162.40530396 154.39802551 C156.19450199 154.37396003 149.98366241 154.36478432 143.77282715 154.3531189 C134.33961299 154.333731 124.90664548 154.29540575 115.47341919 154.26069641 C115.47341919 169.11069641 115.47341919 183.96069641 115.47341919 199.26069641 C128.60675796 199.06343989 128.60675796 199.06343989 141.73904419 198.81025696 C143.40048608 198.79563715 145.06194606 198.78290002 146.72341919 198.77241516 C147.56775513 198.74683533 148.41209106 198.72125549 149.28201294 198.69490051 C155.49907386 198.6903823 159.69763783 200.22775415 164.47341919 204.26069641 C168.575192 208.90517899 170.59306009 213.00007259 170.61386108 219.19921875 C170.61957123 220.21830826 170.62528137 221.23739777 170.63116455 222.28736877 C170.63228241 223.40480469 170.63340027 224.5222406 170.634552 225.67353821 C170.63951691 226.85106155 170.64448181 228.0285849 170.64959717 229.24179077 C170.66170689 232.47345803 170.66916471 235.70508911 170.67360783 238.93677497 C170.67654121 240.95786107 170.68064661 242.97894154 170.685112 245.0000248 C170.69878687 251.32930782 170.70845253 257.65857791 170.71231389 263.98787469 C170.71678924 271.28284166 170.7343127 278.57762077 170.76331449 285.87253064 C170.78497441 291.51768393 170.79502053 297.16278455 170.79635501 302.80797893 C170.79740033 306.17627585 170.803249 309.54439616 170.82117462 312.91264915 C170.83825557 316.67553745 170.83634928 320.43797047 170.8298645 324.20088196 C170.83907928 325.30819672 170.84829407 326.41551147 170.85778809 327.55638123 C170.81949221 334.66102738 170.28273139 340.75516336 165.67654419 346.50288391 C165.03201294 347.04171204 164.38748169 347.58054016 163.72341919 348.13569641 C163.08920044 348.68999329 162.45498169 349.24429016 161.80154419 349.81538391 C155.23686451 353.89077231 148.23367599 353.53719356 140.75491333 353.48774719 C139.59321625 353.48803925 138.43151917 353.4883313 137.23461914 353.4886322 C133.40919427 353.48724305 129.58396613 353.47170108 125.75857544 353.45600891 C123.10056732 353.45227731 120.44256999 353.4493326 117.78456116 353.44743347 C111.5125928 353.44123109 105.24069462 353.4248372 98.96875709 353.40473449 C91.824847 353.3823367 84.68093346 353.37137233 77.53699696 353.36134362 C62.84909698 353.34046979 48.16127226 353.30380917 33.47341919 353.26069641 C33.47341919 367.45069641 33.47341919 381.64069641 33.47341919 396.26069641 C39.87345337 396.23451233 46.27348755 396.20832825 52.86746216 396.18135071 C74.00178329 396.0985403 95.13611077 396.04303312 116.27055168 396.00163555 C129.0856542 395.9758659 141.9006029 395.94073874 154.71560669 395.88349915 C165.88657712 395.83362664 177.05743613 395.8013964 188.22851479 395.79025394 C194.1422792 395.78374179 200.0557249 395.76846159 205.96938705 395.73204613 C211.53932134 395.69802623 217.1088066 395.68765574 222.67883492 395.695158 C224.71938202 395.69378616 226.75994465 395.68388973 228.80040169 395.66466904 C249.00650726 395.48372022 249.00650726 395.48372022 256.47341919 401.26069641 C258.72732544 403.57710266 258.72732544 403.57710266 260.03591919 405.82319641 C260.49095825 406.56698547 260.94599731 407.31077454 261.41482544 408.07710266 C263.21617439 411.7928003 263.60020726 415.08608036 263.62059021 419.19212341 C263.63132317 420.6806205 263.63132317 420.6806205 263.64227295 422.19918823 C263.64496185 423.28183456 263.64765076 424.3644809 263.65042114 425.47993469 C263.65699234 426.62513077 263.66356354 427.77032684 263.67033386 428.95022583 C263.69005938 432.74382086 263.70172861 436.53737629 263.71170044 440.33100891 C263.71577597 441.62773403 263.71985149 442.92445915 263.72405052 444.26047897 C263.74275918 450.41783466 263.75732455 456.57517057 263.76566249 462.73254883 C263.77542084 469.82039349 263.80170684 476.90792469 263.84216338 483.99565899 C263.87607484 490.14979326 263.8878168 496.30379677 263.89186668 502.45801926 C263.89673002 505.06781513 263.90833668 507.67760772 263.92690468 510.28734207 C263.9513208 513.9468434 263.9503258 517.60553265 263.94338989 521.26509094 C263.96260498 522.87084236 263.96260498 522.87084236 263.98220825 524.5090332 C263.93210838 531.79080826 262.94176272 539.07917921 258.13223743 544.87765694 C251.6655425 550.68165342 245.12926481 551.70494173 236.83988953 551.64837646 C235.88808538 551.653762 234.93628123 551.65914754 233.95563453 551.66469628 C230.77596458 551.67896909 227.59671132 551.67187369 224.41702271 551.66474915 C222.13342962 551.67045304 219.8498394 551.67741737 217.56625366 551.68554688 C211.37000654 551.70349082 205.17390093 551.70230756 198.97763562 551.69660449 C193.80357465 551.69351455 188.62954094 551.69960291 183.45548385 551.70564324 C170.5513777 551.72049381 157.64736017 551.71687153 144.74325555 551.70477993 C133.54578443 551.69484777 122.34847856 551.70778923 111.15103293 551.73171412 C99.64270361 551.75611729 88.13446999 551.76531052 76.62611336 551.7590614 C70.16934131 551.75569005 63.71270579 551.75811898 57.25595284 551.77531242 C51.18444694 551.7907744 45.11325669 551.78683392 39.04176331 551.76800728 C36.81495156 551.76431943 34.58811646 551.76743551 32.36132622 551.77789307 C29.31849777 551.79109074 26.27671613 551.77956559 23.2339325 551.76190186 C22.35541911 551.77150686 21.47690573 551.78111187 20.57177073 551.79100794 C13.2812555 551.70409403 8.16535898 549.5937109 2.66091919 544.82319641 C-2.6208117 538.63602595 -3.6805223 533.91121322 -3.64683533 525.94618225 C-3.64768975 525.20772513 -3.64854418 524.469268 -3.64942449 523.70843339 C-3.65107197 521.23331672 -3.64556988 518.75826778 -3.6401062 516.28315735 C-3.63982415 514.50919089 -3.63998242 512.73522432 -3.64054871 510.96125793 C-3.64083596 506.14345643 -3.63495076 501.32567975 -3.62797475 496.50788403 C-3.62172934 491.47368686 -3.62113647 486.43948914 -3.61994934 481.4052887 C-3.61683954 471.87143801 -3.60863086 462.33759878 -3.59859985 452.80375314 C-3.58742784 441.9501804 -3.58192552 431.09660712 -3.57690442 420.24303007 C-3.56644797 397.91557917 -3.54885529 375.58813843 -3.52658081 353.26069641 C-4.54864624 353.26957886 -5.57071167 353.2784613 -6.62374878 353.28761292 C-16.27498482 353.36884358 -25.92615113 353.42873122 -35.57765198 353.4679451 C-40.53912652 353.48878344 -45.50032418 353.51703236 -50.4616394 353.56245422 C-55.25327257 353.60604604 -60.04464008 353.62986173 -64.8364563 353.64020538 C-66.66083963 353.64757286 -68.4852091 353.66195981 -70.30947876 353.68361664 C-72.8730464 353.71282842 -75.43552868 353.71664508 -77.99923706 353.71479797 C-79.1202607 353.73636963 -79.1202607 353.73636963 -80.26393127 353.75837708 C-86.60833563 353.70919879 -91.69544566 351.65459061 -96.55001831 347.54975891 C-97.21904175 346.72604797 -97.21904175 346.72604797 -97.90158081 345.88569641 C-98.36306519 345.34171204 -98.82454956 344.79772766 -99.30001831 344.23725891 C-103.14276166 338.04481263 -102.8229235 331.63942725 -102.81710815 324.59907532 C-102.82382538 323.43086746 -102.8305426 322.26265961 -102.83746338 321.05905151 C-102.85644316 317.20174391 -102.8603675 313.34461029 -102.86251831 309.48725891 C-102.86732077 307.48101904 -102.87212683 305.47477913 -102.87743914 303.46854055 C-102.89369869 297.16259269 -102.89861029 290.85670189 -102.89718628 284.55073547 C-102.89598511 278.06023711 -102.91708726 271.57007141 -102.94867361 265.0796572 C-102.97488202 259.49387898 -102.98555169 253.90820912 -102.98427546 248.32236993 C-102.98376719 244.9920137 -102.99123219 241.66218848 -103.01063156 238.33185196 C-103.0302584 234.61465703 -103.0244655 230.89831567 -103.01242065 227.18110657 C-103.02365967 226.08785568 -103.03489868 224.9946048 -103.04647827 223.8682251 C-102.98047835 215.83996499 -101.33734785 210.58923633 -96.15158081 204.44819641 C-91.10819859 200.2453779 -87.00390826 198.88518364 -80.46508789 198.89993286 C-79.7780081 198.89736959 -79.0909283 198.89480631 -78.38302791 198.89216536 C-76.09355906 198.88724583 -73.80475787 198.90368928 -71.51535034 198.92012024 C-69.86916621 198.92096691 -68.22298095 198.92049059 -66.57679749 198.91879272 C-62.11645159 198.91793291 -57.65634832 198.93555644 -53.19605875 198.9565146 C-48.53157695 198.97528367 -43.86708942 198.97703202 -39.20257568 198.98059082 C-30.37352128 198.9899106 -21.54457848 199.0145235 -12.71557319 199.04463929 C-2.66243671 199.07818536 7.39070513 199.09466983 17.44388366 199.10972559 C38.1204716 199.14107311 58.79690659 199.19608438 79.47341919 199.26069641 C79.47341919 184.41069641 79.47341919 169.56069641 79.47341919 154.26069641 C73.12994263 154.30710266 66.78646606 154.35350891 60.25076294 154.40132141 C56.22665798 154.42176499 52.20261726 154.44102113 48.17849731 154.45600891 C41.79432846 154.47989951 35.41038959 154.50813071 29.02639771 154.56245422 C23.87815903 154.60598703 18.73016706 154.62984944 13.5817585 154.64020538 C11.61978842 154.64758338 9.65783149 154.66199095 7.69596672 154.68361664 C4.94302302 154.71274939 2.1910924 154.71664829 -0.5619812 154.71479797 C-1.36903 154.72917908 -2.1760788 154.74356018 -3.00758362 154.75837708 C-9.44935802 154.7116771 -13.53080291 152.86757008 -18.45236206 148.58491516 C-18.90997925 148.04479797 -19.36759644 147.50468079 -19.83908081 146.94819641 C-20.30958862 146.4158136 -20.78009644 145.88343079 -21.26486206 145.33491516 C-25.15595095 138.93810959 -24.82322528 131.92962858 -24.81710815 124.68501282 C-24.82382538 123.53777237 -24.8305426 122.39053192 -24.83746338 121.20852661 C-24.85641867 117.42639299 -24.86036622 113.64443704 -24.86251831 109.86225891 C-24.8689474 107.22581408 -24.87567584 104.58936997 -24.88269043 101.95292664 C-24.89545739 96.43017932 -24.89845771 90.90747993 -24.89718628 85.38471985 C-24.89598518 79.01861795 -24.91708838 72.65285524 -24.94867361 66.28683913 C-24.97806623 60.14175462 -24.98516002 53.99683186 -24.98396683 47.85168076 C-24.9863228 45.24664804 -24.99514605 42.64161266 -25.01063156 40.03662491 C-25.03028587 36.3891886 -25.02445481 32.74262016 -25.01242065 29.09516907 C-25.02365967 28.02578598 -25.03489868 26.95640289 -25.04647827 25.85461426 C-24.98516724 18.52021816 -23.93410887 11.92417169 -18.7765255 6.37919044 C-13.00596383 1.05815113 -7.76441322 -0.03678328 0 0 Z " fill="#262626" transform="translate(326.5265808105469,220.7393035888672)"/>
<path d="M0 0 C9.11176334 7.35211093 15.5880441 15.61502718 20.33569336 26.36450195 C20.69372543 27.17397781 21.05175751 27.98345367 21.42063904 28.81745911 C21.69239456 29.43392807 21.96415009 30.05039703 22.24414062 30.68554688 C22.84469269 30.69141312 23.44524475 30.69727936 24.06399536 30.70332336 C30.32617411 30.76735904 36.58784377 30.8518051 42.84960938 30.94799805 C45.18515299 30.9812102 47.52077615 31.00925363 49.85644531 31.03198242 C53.21779207 31.06559589 56.57841231 31.1179169 59.93945312 31.17382812 C60.9803006 31.18021805 62.02114807 31.18660797 63.09353638 31.19319153 C69.47389552 31.32198872 74.22282433 31.89858845 79.10742188 36.40429688 C79.58566406 36.99210937 80.06390625 37.57992187 80.55664062 38.18554688 C81.04777344 38.77335937 81.53890625 39.36117187 82.04492188 39.96679688 C85.09068481 44.33205971 84.90769316 49.59579729 84.24414062 54.68554688 C82.02061801 60.31144246 78.59878269 63.83733301 73.24414062 66.68554688 C70.23659209 67.63039209 67.5279395 67.80734635 64.38378906 67.79907227 C63.42309509 67.79899673 62.46240112 67.7989212 61.47259521 67.79884338 C60.44329895 67.7936821 59.41400269 67.78852081 58.35351562 67.78320312 C57.29376526 67.78178818 56.23401489 67.78037323 55.14215088 67.77891541 C51.75945201 67.77332069 48.37681947 67.76076913 44.99414062 67.74804688 C42.69987075 67.74303119 40.40559983 67.73846841 38.11132812 67.734375 C32.48890968 67.72335299 26.86652989 67.70662008 21.24414062 67.68554688 C21.0971875 68.6263208 20.95023438 69.56709473 20.79882812 70.53637695 C18.6417434 82.78295962 8.71779137 93.55341854 -0.88476562 100.83398438 C-17.04760448 111.25736617 -34.69950964 114.20499618 -53.65429688 111.03320312 C-68.52128095 106.8394897 -82.67603222 96.99221639 -90.75585938 83.68554688 C-97.75585938 70.99413034 -97.75585938 70.99413034 -97.75585938 67.68554688 C-99.533255 67.69887054 -99.533255 67.69887054 -101.34655762 67.71246338 C-112.52828207 67.79364615 -123.70994651 67.85355893 -134.89189911 67.89279556 C-140.64029754 67.91364587 -146.38845753 67.94191722 -152.13671875 67.98730469 C-157.68695918 68.030853 -163.23697064 68.05470322 -168.78736877 68.06505585 C-170.90201927 68.07243104 -173.01665763 68.08683308 -175.13121033 68.1084671 C-178.09946506 68.13762009 -181.06678075 68.14149785 -184.03515625 68.13964844 C-184.90406494 68.15402954 -185.77297363 68.16841064 -186.66821289 68.18322754 C-193.08645272 68.14012349 -198.59951195 66.75083648 -203.31920624 62.16730118 C-207.92097274 56.78659947 -208.21980411 52.97569519 -208.16601562 46.02929688 C-207.55672823 41.06215391 -205.57263972 37.87405062 -201.75585938 34.68554688 C-196.45986878 31.36144852 -192.12740782 31.27205921 -186.07861328 31.3449707 C-185.12188721 31.34453262 -184.16516113 31.34409454 -183.17944336 31.34364319 C-180.03022561 31.34572628 -176.88154615 31.36903503 -173.73242188 31.39257812 C-171.54381603 31.39817578 -169.35520641 31.40244508 -167.16659546 31.40544128 C-161.41588907 31.41687668 -155.66541123 31.44633285 -149.91479492 31.47955322 C-144.04283744 31.51028212 -138.1708429 31.52395266 -132.29882812 31.5390625 C-120.78440499 31.57120361 -109.27015121 31.62238436 -97.75585938 31.68554688 C-97.5593277 31.07283936 -97.36279602 30.46013184 -97.16030884 29.82885742 C-96.76602188 28.61903198 -96.76602188 28.61903198 -96.36376953 27.38476562 C-96.10536285 26.58643311 -95.84695618 25.78810059 -95.58071899 24.96557617 C-90.34497985 10.49324857 -77.1329257 -0.30529307 -63.70507812 -6.78710938 C-42.801604 -15.89751805 -18.578653 -13.90815736 0 0 Z " fill="#262626" transform="translate(750.755859375,466.314453125)"/>
<path d="M0 0 C66.33 0 132.66 0 201 0 C201 27.06 201 54.12 201 82 C134.67 82 68.34 82 0 82 C0 54.94 0 27.88 0 0 Z " fill="#F8F7F8" transform="translate(260,456)"/>
<path d="M0 0 C63.69 0 127.38 0 193 0 C193 26.73 193 53.46 193 81 C129.31 81 65.62 81 0 81 C0 54.27 0 27.54 0 0 Z " fill="#F8F8F8" transform="translate(360,654)"/>
<path d="M0 0 C56.1 0 112.2 0 170 0 C170 27.06 170 54.12 170 82 C113.9 82 57.8 82 0 82 C0 54.94 0 27.88 0 0 Z " fill="#F7F7F7" transform="translate(338,257)"/>
<path d="M0 0 C7.94511753 4.04478711 12.61212463 10.27387388 15.4375 18.75 C16.41251596 27.60506294 14.14643844 33.72529146 9.25 41 C3.24473434 46.87181531 -3.0628513 49.45494107 -11.375 50 C-19.57557773 49.81571735 -24.61220432 46.27150584 -30.58203125 40.8828125 C-36.24728141 34.78177386 -36.99085243 28.98599942 -36.90234375 20.921875 C-36.09447429 13.38176006 -32.31909337 7.69809345 -26.50390625 3.00390625 C-18.43962667 -2.20461235 -9.19471884 -3.18750253 0 0 Z " fill="#F6F6F7" transform="translate(723.5625,492.25)"/>
<path d="M0 0 C66.33 0 132.66 0 201 0 C201 27.06 201 54.12 201 82 C134.67 82 68.34 82 0 82 C0 54.94 0 27.88 0 0 Z M2 2 C2 27.41 2 52.82 2 79 C66.68 79 131.36 79 198 79 C198 53.59 198 28.18 198 2 C133.32 2 68.64 2 2 2 Z " fill="#F3F3F3" transform="translate(260,456)"/>
<path d="M0 0 C0.33 0 0.66 0 1 0 C1 26.07 1 52.14 1 79 C66.01 79 131.02 79 198 79 C198 53.59 198 28.18 198 2 C198.33 2 198.66 2 199 2 C199.33 28.07 199.66 54.14 200 81 C133.67 81 67.34 81 -1 81 C-0.67 54.27 -0.34 27.54 0 0 Z " fill="#D9D9D9" transform="translate(261,457)"/>
<path d="M0 0 C2.50489575 2.50489575 2.25097917 3.28484934 2.25396729 6.74475098 C2.25960693 7.74589432 2.26524658 8.74703766 2.27105713 9.77851868 C2.26700867 10.88092392 2.26296021 11.98332916 2.25878906 13.11914062 C2.2622937 14.27689499 2.26579834 15.43464935 2.26940918 16.62748718 C2.27824183 20.47046837 2.27237185 24.31326681 2.265625 28.15625 C2.26697121 30.81661205 2.26890803 33.47696846 2.27142334 36.1373291 C2.27506459 41.71933996 2.27025974 47.30129794 2.26074219 52.88330078 C2.2498573 59.34192915 2.25338277 65.80043126 2.264395 72.25905657 C2.27346337 77.79879607 2.27475537 83.3384975 2.26951766 88.87824202 C2.26639546 92.18930458 2.26677765 95.50029458 2.27259064 98.81135559 C2.27764644 102.50127813 2.26995877 106.1909552 2.25878906 109.88085938 C2.26283752 110.98326462 2.26688599 112.08566986 2.27105713 113.22148132 C2.26541748 114.22262466 2.25977783 115.22376801 2.25396729 116.25524902 C2.25321323 117.12835472 2.25245918 118.00146042 2.25168228 118.90102386 C2 121 2 121 0 123 C-1.63092486 121.36907514 -1.12603002 119.54414365 -1.12698364 117.29284668 C-1.12980347 116.27480453 -1.13262329 115.25676239 -1.13552856 114.20787048 C-1.13350433 113.08159744 -1.1314801 111.9553244 -1.12939453 110.79492188 C-1.13114685 109.6162001 -1.13289917 108.43747833 -1.13470459 107.22303772 C-1.13836267 103.98138392 -1.13748974 100.73977067 -1.1343255 97.49811745 C-1.13180144 94.11263567 -1.13413957 90.72715668 -1.13571167 87.3416748 C-1.13753323 81.65534984 -1.13512741 75.96903784 -1.13037109 70.28271484 C-1.1249285 63.69971982 -1.12669116 57.11675577 -1.1321975 50.5337615 C-1.13672901 44.89130687 -1.13737899 39.24886159 -1.13475883 33.60640574 C-1.13319627 30.23222248 -1.13300172 26.85805379 -1.13629532 23.48387146 C-1.13882012 19.72425204 -1.13498368 15.96469302 -1.12939453 12.20507812 C-1.13141876 11.07880508 -1.13344299 9.95253204 -1.13552856 8.79212952 C-1.13270874 7.77408737 -1.12988892 6.75604523 -1.12698364 5.70715332 C-1.12660662 4.81707832 -1.12622959 3.92700333 -1.12584114 3.00995636 C-1 1 -1 1 0 0 Z " fill="#313131" transform="translate(588,633)"/>
<path d="M0 0 C28.38 0 56.76 0 86 0 C86 14.19 86 28.38 86 43 C85.67 43 85.34 43 85 43 C84.67 29.47 84.34 15.94 84 2 C79.545 2.495 79.545 2.495 75 3 C72.3238248 3.08111368 69.67611651 3.12770091 67.00170898 3.11352539 C65.88783058 3.11374443 65.88783058 3.11374443 64.75144958 3.1139679 C62.33296636 3.11327944 59.91456327 3.10553786 57.49609375 3.09765625 C55.80501853 3.09578827 54.11394277 3.09436616 52.42286682 3.09336853 C47.99899773 3.08957328 43.57516213 3.07976896 39.15130615 3.06866455 C34.626266 3.05838569 30.10122037 3.05385711 25.57617188 3.04882812 C16.71743331 3.03814366 7.85871945 3.0211037 -1 3 C-0.67 2.01 -0.34 1.02 0 0 Z " fill="#E5E5E6" transform="translate(320,375)"/>
<path d="M0 0 C0.99 0 1.98 0 3 0 C3 26.73 3 53.46 3 81 C-9 81 -9 81 -12 79 C-7.71 79 -3.42 79 1 79 C0.67 52.93 0.34 26.86 0 0 Z " fill="#D5D5D6" transform="translate(550,654)"/>
<path d="M0 0 C0 0.66 0 1.32 0 2 C-1.96875 3.5078125 -1.96875 3.5078125 -4.5 5.125 C-5.3353125 5.66382813 -6.170625 6.20265625 -7.03125 6.7578125 C-7.6809375 7.16773438 -8.330625 7.57765625 -9 8 C-7.25975373 4.16501285 -4.63701127 0 0 0 Z " fill="#EEEEEE" transform="translate(679,463)"/>
</svg>
