<?xml version="1.0" encoding="UTF-8"?>
<svg version="1.1" xmlns="http://www.w3.org/2000/svg" width="1080" height="1080">
<path d="M0 0 C0.91197191 -0.00623996 1.82394382 -0.01247993 2.76355124 -0.01890898 C5.79661586 -0.03476851 8.82886896 -0.02226229 11.86193848 -0.00964355 C14.04568447 -0.01506779 16.2294268 -0.02219214 18.41316223 -0.03088379 C24.32842585 -0.049084 30.24340969 -0.04206309 36.15867805 -0.02936745 C42.35644394 -0.01922276 48.55418627 -0.02863721 54.75195312 -0.03491211 C65.15893849 -0.04218421 75.56581022 -0.0326122 85.97277832 -0.0135498 C97.99540108 0.00821801 110.0177075 0.00116635 122.0403285 -0.02085543 C132.37264814 -0.03902179 142.70488621 -0.04156166 153.03721666 -0.03110075 C159.20390806 -0.02487267 165.370472 -0.02401146 171.53715515 -0.0372467 C177.33539181 -0.04882246 183.13327944 -0.04074752 188.9314785 -0.01766968 C191.05627552 -0.01239187 193.18110204 -0.01388042 195.30588722 -0.02272034 C198.21253743 -0.03369592 201.11807815 -0.01988762 204.0246582 0 C204.85998502 -0.00892289 205.69531184 -0.01784577 206.5559516 -0.02703905 C213.20834215 0.06089046 219.41338513 1.63961443 224.40300226 6.25790358 C228.79906906 11.05385021 230.75479242 15.52735175 230.78648376 22.09111023 C230.79645889 23.20261444 230.80643402 24.31411865 230.81671143 25.45930481 C230.8173761 26.6692662 230.81804077 27.8792276 230.81872559 29.12585449 C230.8270491 30.40774658 230.83537262 31.68963867 230.84394836 33.01037598 C230.86585494 36.52097877 230.8746875 40.03149447 230.87977481 43.54215789 C230.88342411 45.73916316 230.88966726 47.93614584 230.8967762 50.13314247 C230.92126112 57.80862041 230.9343197 65.48403091 230.93786621 73.1595459 C230.94149677 80.29589066 230.97135975 87.43180411 231.0132708 94.56801718 C231.04805899 100.70836571 231.06341615 106.84857194 231.06411225 112.98901826 C231.06490242 116.65032695 231.07351961 120.31119637 231.10210991 123.97240257 C231.13333862 128.06292071 231.12419045 132.15242357 231.11169434 136.24304199 C231.13394577 138.04280235 231.13394577 138.04280235 231.15664673 139.87892151 C231.08088076 148.61361575 229.2995955 155.62355877 223.0748291 162.00793457 C217.2508164 165.41711274 212.04358996 165.79191295 205.47766113 165.73498535 C204.14498451 165.73542343 204.14498451 165.73542343 202.78538513 165.73587036 C199.86353619 165.73448265 196.94194572 165.71894774 194.0201416 165.70324707 C191.98847594 165.69951496 189.95680848 165.69666892 187.92514038 165.69467163 C182.58877558 165.68705081 177.25252036 165.66741561 171.91619873 165.64526367 C165.50761174 165.62116631 159.09898802 165.61201688 152.69036865 165.60035706 C142.96427934 165.58099036 133.23843031 165.54265687 123.5123291 165.50793457 C123.5123291 180.02793457 123.5123291 194.54793457 123.5123291 209.50793457 C136.64566787 209.31067805 136.64566787 209.31067805 149.7779541 209.05749512 C151.439396 209.04287531 153.10085597 209.03013818 154.7623291 209.01965332 C155.60666504 208.99407349 156.45100098 208.96849365 157.32092285 208.94213867 C165.30553025 208.9363359 170.8002378 212.37170952 176.3873291 217.94543457 C176.94162598 218.48039551 177.49592285 219.01535645 178.0670166 219.56652832 C182.54945235 225.58752985 181.80833624 232.85282066 181.80285645 239.99572754 C181.80957367 241.25171753 181.81629089 242.50770752 181.82321167 243.80175781 C181.84082426 247.23573409 181.84556501 250.6696106 181.84684324 254.10362768 C181.84826799 256.25221249 181.85254367 258.40077219 181.85783768 260.54935074 C181.87632162 268.05395357 181.88451026 275.55848551 181.88293457 283.06311035 C181.88173331 290.0443831 181.90283658 297.02534662 181.9344219 304.00654113 C181.96062172 310.01269694 181.97130033 316.01875197 181.97002375 322.02496445 C181.96951524 325.60675897 181.9751365 329.18827843 181.99637985 332.77001572 C182.01944263 336.76734119 182.01021886 340.76397865 181.99816895 344.76135254 C182.00940796 345.93876007 182.02064697 347.1161676 182.03222656 348.32925415 C181.97970737 355.19180402 181.12376415 359.6344355 177.5123291 365.50793457 C176.8523291 365.50793457 176.1923291 365.50793457 175.5123291 365.50793457 C175.3267041 366.06480957 175.1410791 366.62168457 174.9498291 367.19543457 C172.51786356 371.10772696 168.72471243 373.9681417 164.22467518 375.06609249 C161.48324414 375.51267252 158.94163427 375.6309791 156.16557312 375.62818909 C155.10693054 375.62956375 154.04828796 375.63093842 152.95756531 375.63235474 C151.80669937 375.62875946 150.65583344 375.62516418 149.47009277 375.62145996 C148.25016632 375.62160599 147.03023987 375.62175201 145.77334595 375.62190247 C142.43694718 375.62132599 139.10061062 375.6163175 135.76422286 375.60932851 C132.27419834 375.60306887 128.78417295 375.60248911 125.29414368 375.6013031 C118.68922433 375.59819748 112.08432157 375.58999446 105.47940952 375.57995361 C97.95827814 375.56876858 90.43714597 375.563276 82.91600835 375.55825818 C67.44810403 375.54781121 51.98022256 375.52947529 36.5123291 375.50793457 C36.5123291 389.36793457 36.5123291 403.22793457 36.5123291 417.50793457 C43.19023682 417.49222412 49.86814453 417.47651367 56.74841309 417.46032715 C78.79280644 417.41065552 100.83720197 417.37734247 122.88163662 417.35249805 C125.54328352 417.34941858 128.20493036 417.34631458 130.86657715 417.34313965 C131.52813283 417.34235272 132.18968852 417.34156579 132.87129135 417.34075501 C142.90913149 417.32852205 152.94692735 417.30739518 162.98474121 417.28161621 C174.6365667 417.25170643 186.28835379 417.23235777 197.9402166 417.22566909 C204.10928068 417.22175954 210.27823487 417.21257645 216.44726372 417.1907444 C222.25596318 417.17035445 228.06450767 417.16410592 233.87323952 417.16861153 C236.00288104 417.16778746 238.13252784 417.16183687 240.26213837 417.15031815 C243.17563443 417.13533493 246.0885497 417.13900233 249.00205994 417.14717102 C249.83963489 417.1384325 250.67720983 417.12969397 251.54016584 417.12069064 C259.79492353 417.18300712 266.88772477 419.10908759 273.00842285 424.83215332 C278.07310446 430.47565569 279.62847789 436.37698681 279.652771 443.83209229 C279.65848114 444.88614258 279.66419128 445.94019287 279.67007446 447.02618408 C279.67119232 448.17226135 279.67231018 449.31833862 279.67346191 450.49914551 C279.67842682 451.7143689 279.68339172 452.92959229 279.68850708 454.18164062 C279.70059232 457.50830509 279.70806779 460.83490689 279.71251774 464.16158581 C279.71545554 466.24332891 279.71956168 468.32506659 279.72402191 470.40680695 C279.73768613 476.92990395 279.74735785 483.45298846 279.7512238 489.97609878 C279.75570102 497.4878052 279.77323766 504.99932934 279.8022244 512.51098037 C279.82389229 518.32943646 279.83393081 524.14784146 279.83526492 529.96633744 C279.83630937 533.43579777 279.84213979 536.9050865 279.86008453 540.37450409 C279.8797379 544.24944341 279.87525593 548.12415769 279.86877441 551.99914551 C279.8779892 553.13712585 279.88720398 554.2751062 279.896698 555.4475708 C279.85725796 562.99209994 279.32046328 570.0190406 274.4498291 576.07043457 C272.5123291 577.50793457 272.5123291 577.50793457 270.5123291 577.50793457 C270.1823291 578.49793457 269.8523291 579.48793457 269.5123291 580.50793457 C264.7527019 583.2579414 260.69106102 584.63134063 255.22905254 584.63656902 C253.94865881 584.64140569 253.94865881 584.64140569 252.64239854 584.64634007 C251.70943336 584.64479147 250.77646818 584.64324287 249.81523132 584.64164734 C248.32293305 584.64504567 248.32293305 584.64504567 246.80048734 584.64851266 C243.45727119 584.65485729 240.11409554 584.65402299 236.77087402 584.65319824 C234.37773079 584.65618945 231.98458804 584.65959189 229.59144592 584.66337585 C223.75959925 584.67130452 217.92776493 584.6744307 212.09591313 584.67498823 C207.354934 584.67546344 202.6139582 584.67751842 197.87298012 584.68068886 C184.42971373 584.68949572 170.98645532 584.69410823 157.54318603 584.69335838 C156.81845979 584.69331843 156.09373354 584.69327847 155.3470459 584.6932373 C154.62143407 584.69319642 153.89582225 584.69315554 153.14822219 584.69311342 C141.39058005 584.69270704 129.63296995 584.70227462 117.87533709 584.71637567 C105.80099187 584.73074221 93.72666227 584.73764569 81.65230829 584.7367819 C74.87418631 584.73645 68.09609791 584.73919371 61.31798363 584.74995995 C54.94292011 584.75963122 48.56792756 584.75972672 42.19286156 584.75244331 C39.85275163 584.75139625 37.51263732 584.75376756 35.17253494 584.75980377 C31.97839879 584.76750937 28.78450858 584.7628882 25.59037781 584.75517273 C24.20096828 584.76288807 24.20096828 584.76288807 22.78348988 584.77075928 C13.16821399 584.71942691 6.46918297 582.41096365 -0.4876709 575.50793457 C-4.73580219 569.25794415 -5.63804227 563.33245003 -5.60792542 555.88970947 C-5.60877984 555.11858393 -5.60963426 554.34745839 -5.61051458 553.5529654 C-5.6121626 550.96729352 -5.60665908 548.38168642 -5.60119629 545.79602051 C-5.60091425 543.94323732 -5.60107249 542.09045402 -5.60163879 540.2376709 C-5.6019261 535.20500065 -5.59604016 530.17235416 -5.58906484 525.13968945 C-5.58282018 519.88127449 -5.58222662 514.62285901 -5.58103943 509.36444092 C-5.5779294 499.40559886 -5.56972042 489.44676776 -5.55968994 479.48793054 C-5.54851862 468.15069099 -5.54301578 456.81345093 -5.5379945 445.47620726 C-5.52753755 422.15344362 -5.50994445 398.83068971 -5.4876709 375.50793457 C-6.54287933 375.51903763 -7.59808777 375.53014069 -8.68527222 375.5415802 C-18.65960695 375.64321025 -28.63383579 375.7180215 -38.60857201 375.76699543 C-43.73597269 375.79302056 -48.86295332 375.82828858 -53.9901123 375.88513184 C-58.94386513 375.93970503 -63.89721549 375.96940832 -68.85124588 375.98232079 C-70.73540196 375.9915154 -72.61953756 376.00947007 -74.50352097 376.03658485 C-94.14777774 376.30790757 -94.14777774 376.30790757 -101.4876709 370.50793457 C-109.51179868 362.29064305 -109.78648887 353.24811812 -109.7623291 342.26794434 C-109.76744003 341.06203644 -109.77255096 339.85612854 -109.77781677 338.61367798 C-109.78928708 335.32641459 -109.79179415 332.03930862 -109.78925347 328.75203061 C-109.78817864 325.99872454 -109.79308009 323.24544136 -109.79785889 320.49214023 C-109.80892725 313.99242317 -109.80940641 307.49276391 -109.80334473 300.99304199 C-109.79730497 294.30717381 -109.80962201 287.62151608 -109.8309148 280.93568379 C-109.84857577 275.17660488 -109.85452514 269.4175927 -109.85127705 263.65848774 C-109.84947139 260.22709129 -109.85202823 256.79584504 -109.86599159 253.36447334 C-109.87836098 249.53525812 -109.87156076 245.70652711 -109.85998535 241.87731934 C-109.86762909 240.75340286 -109.87527283 239.62948639 -109.88314819 238.47151184 C-109.8299407 230.48710345 -108.77565001 224.00719674 -104.3626709 217.25793457 C-95.57468837 208.85203824 -86.95239567 208.80763516 -75.40148926 208.94030762 C-73.67604616 208.94171969 -71.95060005 208.940923 -70.22515869 208.93809509 C-65.56235099 208.93666574 -60.90019182 208.9659772 -56.23753428 209.00096488 C-51.35688142 209.03230893 -46.47621223 209.03516546 -41.59547424 209.04109192 C-32.36268855 209.05660675 -23.13020034 209.09760322 -13.8975454 209.14783937 C-3.38246397 209.20380638 7.13263197 209.23123783 17.64782536 209.25631654 C39.26952931 209.30852128 60.89082569 209.40018346 82.5123291 209.50793457 C82.5123291 194.98793457 82.5123291 180.46793457 82.5123291 165.50793457 C75.8917041 165.55434082 69.2710791 165.60074707 62.4498291 165.64855957 C58.24799044 165.66900499 54.04621337 165.68826128 49.84436035 165.70324707 C43.17935399 165.72713051 36.51456808 165.75534251 29.84973145 165.80969238 C24.47455432 165.85324963 19.09961371 165.87709276 13.72427368 165.88744354 C11.67660806 165.89481715 9.62895494 165.90921609 7.58139038 165.9308548 C4.70652601 165.96001985 1.83263083 165.96388507 -1.0423584 165.96203613 C-1.88321487 165.97641724 -2.72407135 165.99079834 -3.59040833 166.00561523 C-10.23329369 165.95958332 -15.29256881 164.08786966 -20.47595215 159.90246582 C-27.25884789 151.7990063 -27.93146803 143.43282441 -27.87585449 133.15441895 C-27.88111145 131.94836502 -27.88636841 130.7423111 -27.89178467 129.49971008 C-27.90266842 126.21656114 -27.90019859 122.93377959 -27.89064741 119.65063667 C-27.88300224 116.19953826 -27.89010981 112.74846275 -27.89480591 109.29736328 C-27.90024942 103.5040655 -27.89310892 97.71088281 -27.87878418 91.91760254 C-27.86246029 85.23908625 -27.8677498 78.56084482 -27.8842634 71.88233519 C-27.89791849 66.12747216 -27.89977835 60.37269141 -27.89194739 54.6178174 C-27.88729288 51.18980187 -27.88658424 47.76191512 -27.89655685 44.33390808 C-27.90420149 40.50956823 -27.89252389 36.68575125 -27.87585449 32.8614502 C-27.88192719 31.73910477 -27.88799988 30.61675934 -27.89425659 29.46040344 C-27.82342985 20.65980135 -26.66893029 12.67713394 -20.34373391 6.12105274 C-14.42781842 0.97948657 -7.57654276 -0.08093196 0 0 Z M13.5123291 41.50793457 C13.5123291 68.89793457 13.5123291 96.28793457 13.5123291 124.50793457 C71.5923291 124.50793457 129.6723291 124.50793457 189.5123291 124.50793457 C189.5123291 97.11793457 189.5123291 69.72793457 189.5123291 41.50793457 C131.4323291 41.50793457 73.3523291 41.50793457 13.5123291 41.50793457 Z M-68.4876709 250.50793457 C-68.4876709 278.22793457 -68.4876709 305.94793457 -68.4876709 334.50793457 C0.4823291 334.50793457 69.4523291 334.50793457 140.5123291 334.50793457 C140.5123291 306.78793457 140.5123291 279.06793457 140.5123291 250.50793457 C71.5423291 250.50793457 2.5723291 250.50793457 -68.4876709 250.50793457 Z M36.5123291 459.50793457 C36.5123291 486.89793457 36.5123291 514.28793457 36.5123291 542.50793457 C102.5123291 542.50793457 168.5123291 542.50793457 236.5123291 542.50793457 C236.5123291 515.11793457 236.5123291 487.72793457 236.5123291 459.50793457 C170.5123291 459.50793457 104.5123291 459.50793457 36.5123291 459.50793457 Z " fill="#282828" transform="translate(344.4876708984375,231.4920654296875)"/>
<path d="M0 0 C7.34517618 7.04481582 14.76270773 16.25542326 18 26 C18 26.99 18 27.98 18 29 C18.6233876 28.99333817 19.24677521 28.98667633 19.88905334 28.97981262 C26.39432605 28.91329215 32.89950164 28.86813001 39.4050293 28.83520508 C41.83085049 28.82014591 44.25664458 28.79969438 46.68237305 28.77368164 C50.17503562 28.73717297 53.66733725 28.72024447 57.16015625 28.70703125 C58.23959 28.69154739 59.31902374 28.67606354 60.4311676 28.66011047 C67.42809166 28.65855691 72.75378222 29.11447309 78.1796875 33.9375 C78.73914063 34.618125 79.29859375 35.29875 79.875 36 C80.44992187 36.680625 81.02484375 37.36125 81.6171875 38.0625 C85.15259033 43.01605877 84.40174615 49.19013264 84 55 C82.24580952 60.81075595 77.85121214 64.55261848 73 68 C69.47378484 69.64875373 66.72408441 70.24670422 62.8425293 70.22705078 C61.34153938 70.22682419 61.34153938 70.22682419 59.81022644 70.22659302 C58.7423439 70.21627045 57.67446136 70.20594788 56.57421875 70.1953125 C55.47149124 70.1924826 54.36876373 70.18965271 53.23262024 70.18673706 C49.71746886 70.17555981 46.20257411 70.15045937 42.6875 70.125 C40.30143598 70.11496704 37.91536795 70.10584174 35.52929688 70.09765625 C29.68611065 70.07562849 23.84307366 70.04217514 18 70 C17.84998535 70.78608643 17.6999707 71.57217285 17.54541016 72.38208008 C14.60309123 86.50494749 2.06857759 98.69325486 -9.43359375 106.40234375 C-19.566792 112.71052957 -30.05808508 116.2847855 -42 117 C-42.98806641 117.07927734 -42.98806641 117.07927734 -43.99609375 117.16015625 C-62.64191509 117.97084413 -78.87108761 110.44937272 -92.76953125 98.6484375 C-101.13928625 90.75438286 -106.56079764 81.51152749 -111 71 C-112.22251465 70.99413376 -113.4450293 70.98826752 -114.70458984 70.98222351 C-126.23968424 70.92494861 -137.77459098 70.8521618 -149.30949402 70.76428509 C-155.23935582 70.71960534 -161.16914929 70.68034372 -167.09912109 70.65356445 C-172.82454402 70.6275079 -178.54970369 70.5870883 -184.27496338 70.53681374 C-186.45652994 70.52016103 -188.63814202 70.50863684 -190.81976318 70.50238609 C-193.8814233 70.49272787 -196.94241229 70.46464714 -200.00390625 70.43237305 C-201.34934761 70.43452568 -201.34934761 70.43452568 -202.7219696 70.4367218 C-209.80843401 70.33144777 -216.60206765 69.1234647 -221.8125 63.875 C-225.90795297 59.41404893 -227.79567579 54.74807216 -228.125 48.70703125 C-227.80502491 42.89748346 -225.75119786 38.42141188 -222 34 C-217.65896403 30.61399195 -214.22508032 28.87305106 -208.72895813 28.87974548 C-207.42278534 28.87768349 -207.42278534 28.87768349 -206.09022522 28.87557983 C-205.13788498 28.87917511 -204.18554474 28.88277039 -203.2043457 28.88647461 C-202.19928986 28.88632858 -201.19423401 28.88618256 -200.15872192 28.8860321 C-196.83105321 28.88672971 -193.50344021 28.89451506 -190.17578125 28.90234375 C-187.8707838 28.90420847 -185.56578595 28.90563212 -183.26078796 28.90663147 C-177.18955392 28.91045241 -171.11834374 28.92027911 -165.04711914 28.93133545 C-158.85368167 28.94155865 -152.66024035 28.94613104 -146.46679688 28.95117188 C-134.31118742 28.96190173 -122.15559569 28.9789731 -110 29 C-109.85755859 28.05922607 -109.71511719 27.11845215 -109.56835938 26.14916992 C-107.38429473 14.04768802 -95.42220482 2.25239972 -86 -5 C-82.90150502 -6.96078682 -79.70676595 -8.65568924 -76.4375 -10.3125 C-75.62603516 -10.74111328 -74.81457031 -11.16972656 -73.97851562 -11.61132812 C-49.40887823 -24.32249646 -20.53465006 -17.3469607 0 0 Z M-62 29 C-62.928125 29.598125 -63.85625 30.19625 -64.8125 30.8125 C-69.66278453 35.66278453 -72.12680339 42.26991342 -72.3125 49.0625 C-72.2024798 56.00294109 -70.89326993 61.8710258 -66.08203125 67.07421875 C-59.32090736 72.78228264 -52.22487998 75.41422005 -43.375 74.9375 C-35.7462333 73.93541624 -29.91789409 71.01075945 -25 65 C-20.96962781 58.17832275 -18.72259829 51.77345338 -20.49609375 43.7578125 C-23.26810616 34.45512679 -28.77520935 29.72848451 -37 25 C-46.03967027 21.98677658 -54.42988306 23.52475819 -62 29 Z " fill="#272727" transform="translate(798,495)"/>
<path d="M0 0 C42.9 0 85.8 0 130 0 C128.68 0.33 127.36 0.66 126 1 C126 1.66 126 2.32 126 3 C85.08 3 44.16 3 2 3 C2 16.86 2 30.72 2 45 C12.01686157 44.97643433 12.01686157 44.97643433 22.23608398 44.95239258 C44.28047733 44.90272095 66.32487286 44.8694079 88.36930752 44.84456348 C91.03095442 44.84148401 93.69260126 44.83838001 96.35424805 44.83520508 C97.01580373 44.83441815 97.67735942 44.83363122 98.35896225 44.83282044 C108.39680239 44.82058748 118.43459825 44.79946061 128.47241211 44.77368164 C140.1242376 44.74377186 151.77602468 44.7244232 163.4278875 44.71773452 C169.59695157 44.71382497 175.76590577 44.70464188 181.93493462 44.68280983 C187.74363407 44.66241988 193.55217857 44.65617134 199.36091042 44.66067696 C201.49055194 44.65985289 203.62019874 44.6539023 205.74980927 44.64238358 C208.66330533 44.62740036 211.5762206 44.63106776 214.48973083 44.63923645 C215.32730578 44.63049793 216.16488073 44.6217594 217.02783674 44.61275607 C225.28259443 44.67507255 232.37539566 46.60115302 238.49609375 52.32421875 C243.56077536 57.96772112 245.11614879 63.86905224 245.14044189 71.32415771 C245.14615204 72.37820801 245.15186218 73.4322583 245.15774536 74.51824951 C245.15942215 76.23736542 245.15942215 76.23736542 245.16113281 77.99121094 C245.16609772 79.20643433 245.17106262 80.42165771 245.17617798 81.67370605 C245.18826321 85.00037052 245.19573869 88.32697232 245.20018864 91.65365124 C245.20312644 93.73539434 245.20723258 95.81713202 245.21169281 97.89887238 C245.22535703 104.42196938 245.23502874 110.94505389 245.2388947 117.46816421 C245.24337192 124.97987063 245.26090856 132.49139477 245.2898953 140.0030458 C245.31156319 145.82150189 245.32160171 151.63990689 245.32293582 157.45840287 C245.32398027 160.9278632 245.32981069 164.39715193 245.34775543 167.86656952 C245.3674088 171.74150884 245.36292683 175.61622312 245.35644531 179.49121094 C245.3656601 180.62919128 245.37487488 181.76717163 245.3843689 182.93963623 C245.34492886 190.48416537 244.80813418 197.51110602 239.9375 203.5625 C238 205 238 205 236 205 C235.67 205.99 235.34 206.98 235 208 C232 210 232 210 229 210 C229.125 208.25 229.125 208.25 230 206 C230.928125 205.4225 231.85625 204.845 232.8125 204.25 C236.78479271 201.44602867 238.51743096 198.53428851 240 194 C240.55668102 189.75616337 240.53690924 185.5605579 240.50170898 181.28515625 C240.50981346 179.40073318 240.50981346 179.40073318 240.51808167 177.47824097 C240.52840616 174.05231334 240.52091369 170.62736026 240.50437045 167.20151901 C240.49045209 163.60447611 240.49698772 160.00746056 240.50050354 156.41040039 C240.50320033 150.37149976 240.48977601 144.33279849 240.46655273 138.29394531 C240.43994623 131.32742904 240.43819783 124.36124592 240.4499411 117.39469624 C240.46074705 110.67347799 240.45450978 103.95237943 240.44038582 97.23117065 C240.43465037 94.37968085 240.43468935 91.52827934 240.43945122 88.67678833 C240.44514109 84.6892913 240.42583671 80.70228531 240.40405273 76.71484375 C240.40855438 75.54057831 240.41305603 74.36631287 240.41769409 73.15646362 C240.35559683 66.30215059 240.2273831 59.45476691 235.28125 54.16015625 C234.6934375 53.79792969 234.105625 53.43570313 233.5 53.0625 C232.9121875 52.68222656 232.324375 52.30195312 231.71875 51.91015625 C227.28002079 49.55964737 222.90201652 49.84724038 218.0214386 49.84178162 C217.09190894 49.83684364 216.16237928 49.83190566 215.20468205 49.82681805 C212.07696762 49.81140881 208.94927376 49.80307315 205.8215332 49.79467773 C203.58466408 49.7851019 201.34779678 49.775092 199.1109314 49.76467896 C193.02660396 49.73759186 186.94226874 49.7166029 180.85791421 49.69667697 C174.50374694 49.67484086 168.14960377 49.64744057 161.79545593 49.62062073 C151.12658697 49.57634289 140.45771037 49.53551308 129.78881836 49.49731445 C118.79922521 49.45795818 107.80964308 49.41653164 96.82006836 49.37231445 C96.14280853 49.36959018 95.46554871 49.36686591 94.76776586 49.36405908 C91.37019345 49.35037958 87.97262121 49.33665931 84.57504904 49.32291877 C56.38338789 49.20895815 28.1917036 49.1029583 0 49 C0 32.83 0 16.66 0 0 Z " fill="#050506" transform="translate(379,604)"/>
<path d="M0 0 C0.79015849 0.00223072 1.58031698 0.00446144 2.39441967 0.00675976 C3.64420998 0.00441978 3.64420998 0.00441978 4.91924858 0.00203252 C7.73301134 -0.00198104 10.54672089 0.00121353 13.36048412 0.00434887 C15.36883609 0.00299499 17.37718781 0.00121513 19.38553905 -0.00096118 C24.85645304 -0.00553706 30.32734826 -0.00374533 35.7982626 -0.0005821 C41.51000299 0.00194071 47.22174172 -0.00039581 52.93348217 -0.00196826 C62.5273165 -0.00379019 72.12114315 -0.00138304 81.71497631 0.00337231 C92.82408769 0.00881497 103.93318071 0.00705233 115.04229164 0.00154591 C124.56157082 -0.00298456 134.08084445 -0.0036361 143.60012436 -0.00101542 C149.29379674 0.00054772 154.98746048 0.00074011 160.68113232 -0.00255191 C166.03261586 -0.00542967 171.38407564 -0.0034567 176.7355566 0.00234234 C178.70568203 0.00367046 180.67580945 0.00327496 182.6459341 0.00107968 C185.32335392 -0.00162983 188.00069627 0.00174683 190.67811108 0.00675976 C191.46826957 0.00452904 192.25842806 0.00229832 193.07253075 0 C198.42211553 0.01959357 198.42211553 0.01959357 199.53626537 1.13374341 C199.6367159 3.80624408 199.67243186 6.45292922 199.6656599 9.12593091 C199.66828838 10.38195111 199.66828838 10.38195111 199.67096996 11.66334546 C199.67538939 14.44516554 199.67245018 17.22692261 199.66907787 20.00874341 C199.66975089 21.93305994 199.67072089 23.85737639 199.67197704 25.78169262 C199.67345414 29.82027505 199.67129909 33.85883541 199.66663647 37.89741528 C199.66093917 43.08642851 199.66421812 48.27539003 199.67020893 53.46440136 C199.67381423 57.43965561 199.6726761 61.41489749 199.67008114 65.3901521 C199.66941178 67.30401121 199.67024059 69.21787142 199.67256069 71.13172925 C199.67508671 73.80170191 199.67124735 76.47158961 199.6656599 79.14155591 C199.66768414 79.9405531 199.66970837 80.73955029 199.67179394 81.56275952 C199.65052787 87.01948091 199.65052787 87.01948091 198.53626537 88.13374341 C195.89341284 88.2315586 193.27670784 88.26368608 190.63341808 88.25399792 C189.79543542 88.25485235 188.95745277 88.25570677 188.09407669 88.25658709 C185.26415678 88.25824446 182.43429513 88.25271633 179.60438061 88.2472688 C177.58455437 88.24698695 175.56472803 88.2471446 173.54490185 88.2477113 C168.04306152 88.24799939 162.54124278 88.24210082 157.03940749 88.23513734 C151.29650433 88.2289057 145.55360072 88.22830016 139.81069469 88.22711194 C128.92739645 88.22399806 118.04410819 88.21578391 107.16081434 88.20576245 C94.77408741 88.19460306 82.38736001 88.1890913 70.00062931 88.18406701 C44.51250245 88.17360134 19.02438447 88.15600081 -6.46373463 88.13374341 C-6.48685718 76.8076271 -6.50464926 65.48151638 -6.5155468 54.15538132 C-6.52077582 48.89677677 -6.52787381 43.63818831 -6.53917408 38.37959301 C-6.55000228 33.30921214 -6.55601132 28.23884679 -6.55861187 23.16845524 C-6.56046624 21.22947392 -6.56408708 19.2904935 -6.56946468 17.35151875 C-6.57667423 14.64552581 -6.57772561 11.93959785 -6.57726002 9.23359692 C-6.58085529 8.42367795 -6.58445057 7.61375897 -6.58815479 6.77929699 C-6.57609118 0.3431597 -6.45248916 0.0236331 0 0 Z M-3.46373463 3.13374341 C-3.46373463 30.52374341 -3.46373463 57.91374341 -3.46373463 86.13374341 C62.53626537 86.13374341 128.53626537 86.13374341 196.53626537 86.13374341 C196.53626537 58.74374341 196.53626537 31.35374341 196.53626537 3.13374341 C130.53626537 3.13374341 64.53626537 3.13374341 -3.46373463 3.13374341 Z " fill="#060606" transform="translate(384.46373462677,687.8662565946579)"/>
<path d="M0 0 C0.82585915 0.00291284 1.65171829 0.00582568 2.50260347 0.00882679 C3.37325455 0.00797237 4.24390563 0.00711794 5.14094007 0.00623763 C8.08141547 0.00458015 11.0218348 0.01010855 13.96230501 0.01555592 C16.06094798 0.01583776 18.15959105 0.01568012 20.25823396 0.01511341 C25.97494314 0.01482531 31.69163154 0.02072403 37.40833586 0.02768737 C43.3754568 0.03391886 49.34257817 0.03452454 55.30970186 0.03571278 C66.61799154 0.0388267 77.9262716 0.0470409 89.23455703 0.05706227 C102.10495076 0.06822152 114.97534493 0.07373338 127.84574229 0.0787577 C154.32918317 0.08922347 180.81261087 0.1075697 207.29604524 0.12908131 C207.29604524 29.16908131 207.29604524 58.20908131 207.29604524 88.12908131 C179.54156438 88.15162534 151.78709089 88.17005873 124.0326032 88.18089348 C111.1466997 88.18605719 98.26080227 88.19310132 85.37490267 88.20452076 C74.14798613 88.2144653 62.921074 88.22093419 51.69415319 88.2231698 C45.74559888 88.2244773 39.79705716 88.22756562 33.84850687 88.23481137 C28.25655332 88.24156796 22.66461763 88.24369901 17.07266039 88.24218899 C15.01384376 88.24246548 12.95502658 88.24447273 10.89621347 88.24828678 C8.09832108 88.2532184 5.30049725 88.25208158 2.50260347 88.24933583 C1.26381475 88.25370509 1.26381475 88.25370509 0 88.25816262 C-5.58983355 88.24320252 -5.58983355 88.24320252 -6.70395476 87.12908131 C-6.80440528 84.45658063 -6.84012124 81.8098955 -6.83334929 79.13689381 C-6.83510161 78.29954701 -6.83685393 77.46220021 -6.83865935 76.59947926 C-6.84307877 73.81765917 -6.84013956 71.0359021 -6.83676726 68.25408131 C-6.83744027 66.32976478 -6.83841027 64.40544833 -6.83966643 62.48113209 C-6.84114352 58.44254966 -6.83898847 54.4039893 -6.83432585 50.36540943 C-6.82862856 45.1763962 -6.8319075 39.98743468 -6.83789831 34.79842335 C-6.84150361 30.82316911 -6.84036549 26.84792722 -6.83777052 22.87267262 C-6.83710117 20.95881351 -6.83792997 19.04495329 -6.84025007 17.13109547 C-6.84277609 14.46112281 -6.83893674 11.79123511 -6.83334929 9.12126881 C-6.83537352 8.32227162 -6.83739775 7.52327442 -6.83948332 6.7000652 C-6.81397187 0.15401001 -6.53110498 0.01747923 0 0 Z M-3.70395476 2.12908131 C-3.70395476 29.84908131 -3.70395476 57.56908131 -3.70395476 86.12908131 C65.26604524 86.12908131 134.23604524 86.12908131 205.29604524 86.12908131 C205.29604524 58.40908131 205.29604524 30.68908131 205.29604524 2.12908131 C136.32604524 2.12908131 67.35604524 2.12908131 -3.70395476 2.12908131 Z " fill="#0B0B0B" transform="translate(279.7039547562599,479.8709186911583)"/>
<path d="M0 0 C11.56960037 -0.04626791 23.13917885 -0.08184092 34.70885277 -0.10362434 C40.08067458 -0.1140774 45.45243327 -0.12826429 50.82421875 -0.15087891 C56.00483448 -0.17255311 61.18538935 -0.18455715 66.36604691 -0.18975449 C68.34607527 -0.19346002 70.32610018 -0.20069562 72.30610275 -0.21146011 C75.07181846 -0.22590302 77.83728021 -0.22798098 80.60302734 -0.22705078 C81.42805252 -0.23424133 82.2530777 -0.24143188 83.10310364 -0.24884033 C88.77189568 -0.22810432 88.77189568 -0.22810432 91 2 C91.19312383 4.55848325 91.26051843 7.00825676 91.24050903 9.5675354 C91.24221788 10.35736986 91.24392673 11.14720431 91.24568737 11.96097314 C91.24899594 14.62202203 91.23795623 17.28282179 91.22705078 19.94384766 C91.22648696 21.84559625 91.22680265 23.74734529 91.22793579 25.64909363 C91.22851145 30.82446782 91.21672276 35.99974998 91.20278788 41.17510271 C91.19031592 46.57900054 91.18911282 51.9829003 91.18673706 57.3868103 C91.18051187 67.62552027 91.16408703 77.86418772 91.14403808 88.10287893 C91.12171135 99.75686934 91.11069378 111.41086175 91.10064721 123.06486821 C91.07972168 147.04326908 91.04452558 171.02163216 91 195 C90.34 195 89.68 195 89 195 C89 193.35 89 191.7 89 190 C88.34 190 87.68 190 87 190 C87 128.62 87 67.24 87 4 C59.28 4 31.56 4 3 4 C2.01 2.68 1.02 1.36 0 0 Z " fill="#010101" transform="translate(252,603)"/>
<path d="M0 0 C0.95815139 0.00291284 1.91630278 0.00582568 2.90348905 0.00882679 C3.91298091 0.00797237 4.92247277 0.00711794 5.96255529 0.00623763 C9.37289207 0.00457978 12.78318055 0.01010916 16.19351286 0.01555592 C18.62712694 0.01583775 21.06074111 0.01568013 23.49435514 0.01511341 C28.74800396 0.01488509 34.0016375 0.01773646 39.25528234 0.02335125 C46.85125226 0.03146411 54.44721616 0.03408125 62.04318994 0.03533924 C74.36592467 0.0375301 86.6886528 0.0441911 99.01138395 0.05364186 C110.98469091 0.0628151 122.95799607 0.06989636 134.93130583 0.07414967 C136.0375936 0.07454375 136.0375936 0.07454375 137.16623063 0.0749458 C140.86602558 0.0762508 144.56582055 0.07751452 148.26561552 0.0787577 C178.97913493 0.08913137 209.69264614 0.10682472 240.40615934 0.12908131 C240.40615934 0.78908131 240.40615934 1.44908131 240.40615934 2.12908131 C239.41615934 2.12908131 238.42615934 2.12908131 237.40615934 2.12908131 C237.40615934 2.78908131 237.40615934 3.44908131 237.40615934 4.12908131 C157.54615934 4.12908131 77.68615934 4.12908131 -4.59384066 4.12908131 C-4.59384066 3.46908131 -4.59384066 2.80908131 -4.59384066 2.12908131 C-5.58384066 1.79908131 -6.57384066 1.46908131 -7.59384066 1.12908131 C-5.63131847 -0.83344088 -2.6127715 0.00603225 0 0 Z " fill="#131313" transform="translate(365.5938406586647,811.8709186911583)"/>
<path d="M0 0 C0.84732193 0.00359528 1.69464386 0.00719055 2.56764221 0.01089478 C3.89922363 0.01067574 3.89922363 0.01067574 5.25770569 0.01045227 C8.20666404 0.01115174 11.15556006 0.01894568 14.10450745 0.02676392 C16.14332037 0.02862798 18.18213374 0.03005194 20.22094727 0.03105164 C25.59844693 0.03487776 30.97591978 0.04470884 36.35340881 0.05575562 C41.83619321 0.06596771 47.31898192 0.07054882 52.80177307 0.07559204 C63.56806093 0.08633103 74.33432883 0.10340858 85.1006012 0.12442017 C85.1006012 0.45442017 85.1006012 0.78442017 85.1006012 1.12442017 C56.0606012 1.45442017 27.0206012 1.78442017 -2.8993988 2.12442017 C-2.8993988 16.64442017 -2.8993988 31.16442017 -2.8993988 46.12442017 C10.23393996 45.92716364 10.23393996 45.92716364 23.3662262 45.67398071 C25.02766809 45.65936091 26.68912806 45.64662378 28.3506012 45.63613892 C29.6171051 45.59776917 29.6171051 45.59776917 30.90919495 45.55862427 C38.89380234 45.5528215 44.3885099 48.98819512 49.9756012 54.56192017 C50.52989807 55.0968811 51.08419495 55.63184204 51.6552887 56.18301392 C56.13772445 62.20401545 55.39660833 69.46930625 55.39112854 76.61221313 C55.39784576 77.86820312 55.40456299 79.12419312 55.41148376 80.41824341 C55.42909636 83.85221969 55.4338371 87.28609619 55.43511534 90.72011328 C55.43654008 92.86869809 55.44081577 95.01725778 55.44610977 97.16583633 C55.46459371 104.67043917 55.47278236 112.17497111 55.47120667 119.67959595 C55.4700054 126.66086869 55.49110868 133.64183221 55.52269399 140.62302673 C55.54889381 146.62918254 55.55957243 152.63523757 55.55829585 158.64145005 C55.55778734 162.22324457 55.5634086 165.80476402 55.58465195 169.38650131 C55.60771472 173.38382678 55.59849095 177.38046425 55.58644104 181.37783813 C55.59768005 182.55524567 55.60891907 183.7326532 55.62049866 184.94573975 C55.56797946 191.80828962 54.71203625 196.2509211 51.1006012 202.12442017 C50.4406012 202.12442017 49.7806012 202.12442017 49.1006012 202.12442017 C48.8118512 202.74317017 48.5231012 203.36192017 48.2256012 203.99942017 C47.1006012 206.12442017 47.1006012 206.12442017 45.1006012 208.12442017 C42.4756012 207.74942017 42.4756012 207.74942017 40.1006012 207.12442017 C40.8431012 206.56754517 41.5856012 206.01067017 42.3506012 205.43692017 C47.6779207 200.95712876 49.9724439 196.97327282 51.1006012 190.12442017 C51.37632086 186.12908704 51.37413257 182.14758969 51.35939026 178.14395142 C51.3628949 176.96569794 51.36639954 175.78744446 51.37001038 174.57348633 C51.37878342 170.69457029 51.37299404 166.81583794 51.3662262 162.93692017 C51.36667213 160.23224745 51.36951291 157.52757796 51.37202454 154.82290649 C51.37565497 149.16069565 51.37088938 143.49853712 51.36134338 137.83633423 C51.35046059 131.30612781 51.35398682 124.77604632 51.36499619 118.24584293 C51.37409544 112.62181313 51.37534149 106.99782076 51.37011886 101.37378597 C51.36701361 98.02237053 51.36734435 94.6710605 51.37319183 91.31964111 C51.37828332 87.58130506 51.37050964 83.84320728 51.35939026 80.10488892 C51.36343872 79.00542938 51.36748718 77.90596985 51.37165833 76.77319336 C51.33284041 69.71145122 51.16541126 62.33294093 46.9756012 56.31192017 C46.62239807 55.76922485 46.26919495 55.22652954 45.9052887 54.66738892 C40.27813414 49.85629357 33.1933866 49.67400045 26.16700745 49.64785767 C24.7891935 49.62448837 24.7891935 49.62448837 23.38354492 49.60064697 C20.47673776 49.5534603 17.57016802 49.52545144 14.6631012 49.49942017 C11.73120494 49.46293648 8.79944368 49.4224144 5.86767578 49.37677002 C4.04928539 49.34951731 2.23079516 49.32817738 0.41226196 49.31323242 C-5.78866857 49.2351504 -5.78866857 49.2351504 -6.8993988 48.12442017 C-6.99762625 46.65636725 -7.02738251 45.18364557 -7.02879333 43.71231079 C-7.03352158 42.30580261 -7.03352158 42.30580261 -7.03834534 40.87088013 C-7.03632111 39.85111084 -7.03429687 38.83134155 -7.0322113 37.78067017 C-7.03316803 36.74124268 -7.03412476 35.70181519 -7.03511047 34.63088989 C-7.03579243 32.42837463 -7.03393707 30.22585737 -7.0297699 28.02334595 C-7.02442188 24.63902297 -7.02971439 21.25483273 -7.03611755 17.87051392 C-7.03545678 15.73639904 -7.03417562 13.60228424 -7.0322113 11.46817017 C-7.03423553 10.44840088 -7.03625977 9.42863159 -7.03834534 8.37796021 C-7.03519318 7.44028809 -7.03204102 6.50261597 -7.02879333 5.53652954 C-7.02799774 4.70681641 -7.02720215 3.87710327 -7.02638245 3.02224731 C-6.74428106 -1.19388367 -3.4727789 0.00622362 0 0 Z " fill="#121212" transform="translate(470.89939880371094,394.8755798339844)"/>
<path d="M0 0 C8.84037956 1.94788024 14.98040526 5.14819059 20 13 C22.17627257 19.8142184 22.29018657 26.21582007 22.2746582 33.33178711 C22.27976913 34.54744858 22.28488007 35.76311005 22.29014587 37.01560974 C22.30161707 40.32976718 22.30412314 43.64367348 22.30158257 46.95783305 C22.30050782 49.733507 22.305409 52.50915824 22.310188 55.28482729 C22.32125673 61.83728193 22.32173529 68.38967922 22.31567383 74.94213867 C22.30963404 81.68253776 22.32195111 88.42272811 22.3432439 95.1630916 C22.36090415 100.96887914 22.36685436 106.77460049 22.36360615 112.58041388 C22.36180038 116.03975553 22.36435849 119.4989482 22.37832069 122.9582653 C22.39332041 126.81853187 22.3838903 130.67853584 22.37231445 134.53881836 C22.37995819 135.67208557 22.38760193 136.80535278 22.39547729 137.97296143 C22.34570402 145.50173165 21.79733101 152.52452814 16.9375 158.5625 C15 160 15 160 13 160 C12.67 160.99 12.34 161.98 12 163 C9 165 9 165 6 165 C6.125 163.25 6.125 163.25 7 161 C7.928125 160.4225 8.85625 159.845 9.8125 159.25 C13.78479271 156.44602867 15.51743096 153.53428851 17 149 C17.55668102 144.75616337 17.53690924 140.5605579 17.50170898 136.28515625 C17.50981346 134.40073318 17.50981346 134.40073318 17.51808167 132.47824097 C17.52840616 129.05231334 17.52091369 125.62736026 17.50437045 122.20151901 C17.49045209 118.60447611 17.49698772 115.00746056 17.50050354 111.41040039 C17.50320033 105.37149976 17.48977601 99.33279849 17.46655273 93.29394531 C17.43994623 86.32742904 17.43819783 79.36124592 17.4499411 72.39469624 C17.46074705 65.67347799 17.45450978 58.95237943 17.44038582 52.23117065 C17.43465037 49.37968085 17.43468935 46.52827934 17.43945122 43.67678833 C17.44514109 39.6892913 17.42583671 35.70228531 17.40405273 31.71484375 C17.40855438 30.54057831 17.41305603 29.36631287 17.41769409 28.15646362 C17.35559683 21.30215059 17.2273831 14.45476691 12.28125 9.16015625 C11.6934375 8.79792969 11.105625 8.43570313 10.5 8.0625 C9.9121875 7.68222656 9.324375 7.30195312 8.71875 6.91015625 C4.28002079 4.55964737 -0.09798348 4.84724038 -4.9785614 4.84178162 C-5.90809106 4.83684364 -6.83762072 4.83190566 -7.79531795 4.82681805 C-10.92303238 4.81140881 -14.05072624 4.80307315 -17.1784668 4.79467773 C-19.41533592 4.7851019 -21.65220322 4.775092 -23.8890686 4.76467896 C-29.97339604 4.73759186 -36.05773126 4.7166029 -42.14208579 4.69667697 C-48.49625306 4.67484086 -54.85039623 4.64744057 -61.20454407 4.62062073 C-71.87341303 4.57634289 -82.54228963 4.53551308 -93.21118164 4.49731445 C-104.20077479 4.45795818 -115.19035692 4.41653164 -126.17993164 4.37231445 C-126.85719147 4.36959018 -127.53445129 4.36686591 -128.23223414 4.36405908 C-131.62980655 4.35037958 -135.02737879 4.33665931 -138.42495096 4.32291877 C-166.61661101 4.20895816 -194.80829512 4.10222117 -223 4 C-222.67 3.34 -222.34 2.68 -222 2 C-148.74 2 -75.48 2 0 2 C0 1.34 0 0.68 0 0 Z " fill="#0C0C0C" transform="translate(602,649)"/>
<path d="M0 0 C23.3214287 -0.02332641 46.64285549 -0.0409779 69.96429348 -0.05181217 C80.7920362 -0.05697568 91.61977169 -0.06401942 102.44750977 -0.07543945 C111.88134407 -0.08538462 121.31517313 -0.09185303 130.74901253 -0.09408849 C135.74741486 -0.09539589 140.74580221 -0.09848353 145.74419975 -0.10573006 C150.4431501 -0.11248764 155.14207919 -0.1146175 159.84103394 -0.11310768 C161.57088906 -0.11338413 163.30074484 -0.1153908 165.03059578 -0.11920547 C167.38182823 -0.12413864 169.73297915 -0.1229997 172.08421326 -0.12025452 C173.40329902 -0.12117631 174.72238478 -0.1220981 176.08144283 -0.12304783 C179 0 179 0 180 1 C180.10046803 3.70300299 180.13616452 6.38048346 180.12939453 9.08398438 C180.13202301 10.35463493 180.13202301 10.35463493 180.13470459 11.6509552 C180.13912409 14.46524066 180.13618477 17.27946384 180.1328125 20.09375 C180.13348551 22.04048678 180.13445551 23.98722347 180.13571167 25.93395996 C180.13718878 30.01962075 180.13503368 34.10525971 180.13037109 38.19091797 C180.1246738 43.44046516 180.12795274 48.68996122 180.13394356 53.93950653 C180.13754883 57.96108387 180.13641074 61.98264899 180.13381577 66.00422668 C180.1331464 67.94041449 180.13397525 69.87660339 180.13629532 71.81278992 C180.13882129 74.51389524 180.13498205 77.21491659 180.12939453 79.91601562 C180.13141876 80.72436356 180.13344299 81.53271149 180.13552856 82.36555481 C180.11426248 87.88573752 180.11426248 87.88573752 179 89 C176.67232986 89.0976134 174.37437981 89.12997765 172.04624939 89.12025452 C171.31035554 89.12110894 170.57446169 89.12196337 169.81626803 89.12284368 C167.33183354 89.12450067 164.84746545 89.11897356 162.36303711 89.11352539 C160.58951316 89.11324354 158.81598909 89.11340121 157.04246521 89.1139679 C152.21208983 89.11425595 147.38173906 89.1083579 142.55136943 89.10139394 C137.50914683 89.09516176 132.46692373 89.09455671 127.42469788 89.09336853 C117.86949773 89.09025481 108.31430897 89.08204088 98.75911385 89.07201904 C85.85214001 89.05877429 72.94516308 89.05335832 60.03818417 89.04751682 C39.69211425 89.03810101 19.34606835 89.01818237 -1 89 C-1 60.29 -1 31.58 -1 2 C-0.67 2 -0.34 2 0 2 C0 30.05 0 58.1 0 87 C58.74 87 117.48 87 178 87 C178 58.62 178 30.24 178 1 C119.26 1 60.52 1 0 1 C0 0.67 0 0.34 0 0 Z " fill="#080808" transform="translate(357,270)"/>
<path d="M0 0 C66.99 0 133.98 0 203 0 C203 28.05 203 56.1 203 85 C136.01 85 69.02 85 0 85 C0 56.95 0 28.9 0 0 Z M1 1 C1 28.39 1 55.78 1 84 C67 84 133 84 201 84 C201 56.61 201 29.22 201 1 C135 1 69 1 1 1 Z " fill="#3B3B3B" transform="translate(380,690)"/>
<path d="M0 0 C32.01 0.33 64.02 0.66 97 1 C97.0309375 13.0965625 97.0309375 13.0965625 97.0625 25.4375 C97.071604 27.98654053 97.08070801 30.53558105 97.09008789 33.16186523 C97.09300688 35.16910754 97.09555548 37.17635043 97.09765625 39.18359375 C97.10277222 40.23647583 97.10788818 41.28935791 97.11315918 42.37414551 C97.11334045 43.86621521 97.11334045 43.86621521 97.11352539 45.38842773 C97.115746 46.25668686 97.11796661 47.12494598 97.12025452 48.01951599 C97 50 97 50 96 51 C93.7470898 51.09706134 91.49106821 51.12186638 89.23606873 51.12025452 C88.52059264 51.12110894 87.80511655 51.12196337 87.06795937 51.12284368 C84.65262186 51.12450058 82.23735267 51.11897371 79.82202148 51.11352539 C78.09775799 51.11324354 76.37349438 51.11340121 74.64923096 51.1139679 C69.95314853 51.11425595 65.25709141 51.10835802 60.56101489 51.10139394 C55.65892841 51.09516164 50.75684142 51.0945567 45.85475159 51.09336853 C36.56517104 51.09025485 27.2756022 51.08204096 17.98602682 51.07201904 C7.4130504 51.06085905 -3.15992657 51.05534774 -13.73290741 51.05032361 C-35.48861149 51.03985838 -57.24430501 51.02225823 -79 51 C-79.495 49.515 -79.495 49.515 -80 48 C-21.92 48.33 36.16 48.66 96 49 C96 33.82 96 18.64 96 3 C89.32136719 3.01160156 82.64273438 3.02320313 75.76171875 3.03515625 C71.53710841 3.04026424 67.31250186 3.0450781 63.08789062 3.04882812 C56.37865409 3.05481181 49.66943117 3.06189951 42.96020508 3.07543945 C37.55265465 3.0862845 32.14511882 3.09228029 26.73755836 3.09487724 C24.67184024 3.09672856 22.60612293 3.10034359 20.540411 3.10573006 C17.65281812 3.1129619 14.76528598 3.11399003 11.87768555 3.11352539 C11.01885269 3.11712067 10.16001984 3.12071594 9.27516174 3.12442017 C5.92951361 3.1185736 3.19649589 3.06549863 0 2 C0 1.34 0 0.68 0 0 Z " fill="#0A0A0A" transform="translate(332,393)"/>
<path d="M0 0 C11.56960037 -0.04626791 23.13917885 -0.08184092 34.70885277 -0.10362434 C40.08067458 -0.1140774 45.45243327 -0.12826429 50.82421875 -0.15087891 C56.00483448 -0.17255311 61.18538935 -0.18455715 66.36604691 -0.18975449 C68.34607527 -0.19346002 70.32610018 -0.20069562 72.30610275 -0.21146011 C75.07181846 -0.22590302 77.83728021 -0.22798098 80.60302734 -0.22705078 C81.42805252 -0.23424133 82.2530777 -0.24143188 83.10310364 -0.24884033 C88.77189568 -0.22810432 88.77189568 -0.22810432 91 2 C91.19312383 4.55848325 91.26051843 7.00825676 91.24050903 9.5675354 C91.24221788 10.35736986 91.24392673 11.14720431 91.24568737 11.96097314 C91.24899594 14.62202203 91.23795623 17.28282179 91.22705078 19.94384766 C91.22648696 21.84559625 91.22680265 23.74734529 91.22793579 25.64909363 C91.22851145 30.82446782 91.21672276 35.99974998 91.20278788 41.17510271 C91.19031592 46.57900054 91.18911282 51.9829003 91.18673706 57.3868103 C91.18051187 67.62552027 91.16408703 77.86418772 91.14403808 88.10287893 C91.12171135 99.75686934 91.11069378 111.41086175 91.10064721 123.06486821 C91.07972168 147.04326908 91.04452558 171.02163216 91 195 C90.34 195 89.68 195 89 195 C89 131.97 89 68.94 89 4 C60.62 4 32.24 4 3 4 C2.01 2.68 1.02 1.36 0 0 Z " fill="#111111" transform="translate(252,603)"/>
<path d="M0 0 C0.33 0 0.66 0 1 0 C1.03738281 0.72445312 1.07476563 1.44890625 1.11328125 2.1953125 C1.58859497 9.1852201 2.1295447 14.34482884 7.5 19.3125 C10.83070343 21.56072481 13.34514065 22.12474541 17.27104187 22.15821838 C18.57721466 22.17290161 18.57721466 22.17290161 19.90977478 22.18788147 C20.86211502 22.19363693 21.81445526 22.1993924 22.7956543 22.20532227 C24.30323807 22.22017166 24.30323807 22.22017166 25.84127808 22.23532104 C29.16890087 22.26695078 32.49653794 22.29169939 35.82421875 22.31640625 C38.12922032 22.3369745 40.43421811 22.35797093 42.73921204 22.37937927 C48.81040384 22.43461326 54.88162976 22.48401673 60.95288086 22.53222656 C67.14635255 22.58243186 73.33977462 22.638123 79.53320312 22.69335938 C91.6887597 22.8009572 103.84435934 22.90239861 116 23 C116.6408498 24.27576537 117.28101756 25.55187337 117.92089844 26.828125 C118.27746521 27.5387207 118.63403198 28.24931641 119.00140381 28.98144531 C120.1461804 31.29548794 121.21523851 33.63483088 122.25 36 C122.58515625 36.763125 122.9203125 37.52625 123.265625 38.3125 C123.50796875 38.869375 123.7503125 39.42625 124 40 C122.515 39.505 122.515 39.505 121 39 C120.3125 36.9375 120.3125 36.9375 120 35 C119.01 35 118.02 35 117 35 C116.01 32.69 115.02 30.38 114 28 C112.77748535 27.99413376 111.5549707 27.98826752 110.29541016 27.98222351 C98.76031576 27.92494861 87.22540902 27.8521618 75.69050598 27.76428509 C69.76064418 27.71960534 63.83085071 27.68034372 57.90087891 27.65356445 C52.17545598 27.6275079 46.45029631 27.5870883 40.72503662 27.53681374 C38.54347006 27.52016103 36.36185798 27.50863684 34.18023682 27.50238609 C31.1185767 27.49272787 28.05758771 27.46464714 24.99609375 27.43237305 C23.65065239 27.43452568 23.65065239 27.43452568 22.2780304 27.4367218 C15.75232565 27.33977822 10.11895823 26.34193553 4.7578125 22.31640625 C4.21898437 21.73761719 3.68015625 21.15882813 3.125 20.5625 C2.29355469 19.69818359 2.29355469 19.69818359 1.4453125 18.81640625 C-1.83704387 14.6912827 -2.22028175 12.08254599 -1.6875 6.8125 C-1.58824219 5.74644531 -1.48898437 4.68039062 -1.38671875 3.58203125 C-1 1 -1 1 0 0 Z " fill="#020202" transform="translate(573,538)"/>
<path d="M0 0 C0.33 0 0.66 0 1 0 C1 43.89 1 87.78 1 133 C0.67 132.34 0.34 131.68 0 131 C-0.99 130.67 -1.98 130.34 -3 130 C-3.07009176 113.78839936 -3.12298894 97.5768479 -3.15543652 81.36513233 C-3.17090317 73.83768968 -3.19198875 66.31034119 -3.22631836 58.78295898 C-3.25622699 52.22182597 -3.27557648 45.66076116 -3.28226548 39.09956187 C-3.28617529 35.62566891 -3.29535946 32.15197105 -3.31719017 28.67814064 C-3.34136716 24.79946876 -3.34196904 20.92098749 -3.34057617 17.04223633 C-3.351362 15.89137039 -3.36214783 14.74050446 -3.3732605 13.55476379 C-3.36913651 12.49612122 -3.36501251 11.43747864 -3.36076355 10.34675598 C-3.36352893 9.42957196 -3.36629431 8.51238794 -3.36914349 7.56741047 C-2.92258751 4.46159245 -1.80636811 2.54052171 0 0 Z " fill="#151515" transform="translate(320,247)"/>
<path d="M0 0 C0.95815139 0.00291284 1.91630278 0.00582568 2.90348905 0.00882679 C3.91298091 0.00797237 4.92247277 0.00711794 5.96255529 0.00623763 C9.37289207 0.00457978 12.78318055 0.01010916 16.19351286 0.01555592 C18.62712694 0.01583775 21.06074111 0.01568013 23.49435514 0.01511341 C28.74800396 0.01488509 34.0016375 0.01773646 39.25528234 0.02335125 C46.85125226 0.03146411 54.44721616 0.03408125 62.04318994 0.03533924 C74.36592467 0.0375301 86.6886528 0.0441911 99.01138395 0.05364186 C110.98469091 0.0628151 122.95799607 0.06989636 134.93130583 0.07414967 C136.0375936 0.07454375 136.0375936 0.07454375 137.16623063 0.0749458 C140.86602558 0.0762508 144.56582055 0.07751452 148.26561552 0.0787577 C178.97913493 0.08913137 209.69264614 0.10682472 240.40615934 0.12908131 C240.40615934 0.78908131 240.40615934 1.44908131 240.40615934 2.12908131 C239.41615934 2.12908131 238.42615934 2.12908131 237.40615934 2.12908131 C237.40615934 2.78908131 237.40615934 3.44908131 237.40615934 4.12908131 C235.42615934 3.63408131 235.42615934 3.63408131 233.40615934 3.12908131 C233.73615934 2.46908131 234.06615934 1.80908131 234.40615934 1.12908131 C158.83615934 1.45908131 83.26615934 1.78908131 5.40615934 2.12908131 C61.17615934 2.45908131 116.94615934 2.78908131 174.40615934 3.12908131 C174.40615934 3.45908131 174.40615934 3.78908131 174.40615934 4.12908131 C115.33615934 4.12908131 56.26615934 4.12908131 -4.59384066 4.12908131 C-4.59384066 3.46908131 -4.59384066 2.80908131 -4.59384066 2.12908131 C-5.58384066 1.79908131 -6.57384066 1.46908131 -7.59384066 1.12908131 C-5.63131847 -0.83344088 -2.6127715 0.00603225 0 0 Z " fill="#040404" transform="translate(365.5938406586647,811.8709186911583)"/>
<path d="M0 0 C0.33 0 0.66 0 1 0 C1 43.56 1 87.12 1 132 C-2.05168797 127.93108271 -2.37483856 127.44640063 -2.36076355 122.77349854 C-2.36488754 121.71623062 -2.36901154 120.65896271 -2.3732605 119.56965637 C-2.36247467 118.41519516 -2.35168884 117.26073395 -2.34057617 116.07128906 C-2.34101425 114.85150864 -2.34145233 113.63172821 -2.34190369 112.37498474 C-2.3401723 109.03420061 -2.32513191 105.69397328 -2.30418181 102.3532877 C-2.28542222 98.86060287 -2.28366515 95.36791054 -2.28010559 91.87518311 C-2.27078299 85.26308374 -2.24616639 78.65113327 -2.21605712 72.03909945 C-2.18251973 64.510755 -2.16602878 56.98240342 -2.15097082 49.45400286 C-2.11961695 33.96924903 -2.06685237 18.48464372 -2 3 C-1.34 3 -0.68 3 0 3 C0 2.01 0 1.02 0 0 Z " fill="#121213" transform="translate(237,458)"/>
<path d="M0 0 C3.1076009 0.0739905 5.27573366 0.36924223 7.6640625 2.44921875 C12.09705507 7.48273987 14.24867415 11.80763534 14.25396729 18.62355042 C14.26242676 20.30381317 14.26242676 20.30381317 14.27105713 22.01802063 C14.26700867 23.23740829 14.26296021 24.45679596 14.25878906 25.71313477 C14.2622937 27.00466461 14.26579834 28.29619446 14.26940918 29.62686157 C14.27851279 33.16188361 14.27499757 36.69678868 14.26865101 40.23181272 C14.26358158 43.93351125 14.26828498 47.63519987 14.27142334 51.3368988 C14.27505978 57.55168452 14.27027187 63.76642268 14.26074219 69.98120117 C14.24985345 77.16523152 14.25338752 84.34914839 14.264395 91.533176 C14.27347134 97.70399877 14.2747516 103.87478738 14.26951766 110.04561466 C14.26640049 113.73004481 14.26598178 117.41442162 14.27259064 121.09884834 C14.27944137 125.20472054 14.26994569 129.31039704 14.25878906 133.41625977 C14.26283752 134.63767166 14.26688599 135.85908356 14.27105713 137.11750793 C14.26541748 138.23486328 14.25977783 139.35221863 14.25396729 140.50343323 C14.25321323 141.4740397 14.25245918 142.44464617 14.25168228 143.44466496 C13.99120059 146.08934053 13.3474006 147.73208005 12 150 C11.01 150 10.02 150 9 150 C9.32433517 148.93499771 9.64867035 147.86999542 9.98283386 146.77272034 C11.39331113 141.08738049 11.28734153 135.46477068 11.2746582 129.63647461 C11.27976913 128.41760056 11.28488007 127.1987265 11.29014587 125.94291687 C11.30161609 122.62062972 11.30412352 119.29859309 11.30158257 115.97630382 C11.30050813 113.1954707 11.305408 110.41466026 11.310188 107.63383204 C11.32125531 101.07186989 11.32173551 94.509965 11.31567383 87.94799805 C11.30962843 81.19165443 11.32196565 74.43551876 11.3432439 67.6792106 C11.36088306 61.86326334 11.36685783 56.04738215 11.36360615 50.23140913 C11.36179769 46.76430664 11.3643861 43.2973527 11.37832069 39.83027458 C11.39327783 35.96481078 11.38390867 32.09961051 11.37231445 28.23413086 C11.37995819 27.0936731 11.38760193 25.95321533 11.39547729 24.77819824 C11.32888105 14.73086653 8.83478136 8.96908084 1.75 1.6875 C1.1725 1.130625 0.595 0.57375 0 0 Z " fill="#0D0D0D" transform="translate(561,235)"/>
<path d="M0 0 C1.18481715 -0.00782324 1.18481715 -0.00782324 2.39357001 -0.01580453 C3.68621847 -0.00911236 3.68621847 -0.00911236 5.00498104 -0.002285 C5.92508132 -0.00540498 6.84518161 -0.00852497 7.79316372 -0.01173949 C10.88319763 -0.01973115 13.9730358 -0.01339127 17.06307125 -0.00710678 C19.27551546 -0.0098161 21.48795876 -0.0133767 23.70040035 -0.0177269 C29.71465834 -0.02685961 35.72884786 -0.02330313 41.74310708 -0.01696873 C48.02912061 -0.01191395 54.31512818 -0.01659867 60.60114193 -0.01974106 C71.83391645 -0.02361532 83.06666268 -0.01739102 94.29943054 -0.00722238 C104.48807494 0.00171538 114.67667377 0.00015934 124.86531734 -0.00905991 C136.69364406 -0.0197578 148.52194869 -0.02374987 160.35028118 -0.01783538 C166.61295474 -0.01471225 172.8755969 -0.01431579 179.13826847 -0.02090836 C185.02414619 -0.02667127 190.90993757 -0.02270428 196.79580593 -0.01111984 C198.9602122 -0.00846772 201.12462569 -0.0092477 203.28902912 -0.01364517 C206.23497302 -0.01908024 209.18063718 -0.01229135 212.12656307 -0.002285 C212.99055944 -0.00674645 213.8545558 -0.01120789 214.74473387 -0.01580453 C220.65982935 0.02338169 220.65982935 0.02338169 224.00228024 2.25168228 C222.8664478 2.2489169 221.73061537 2.24615152 220.56036377 2.24330235 C192.91791772 2.17669174 165.27548208 2.1273993 137.63297272 2.09624577 C134.97132582 2.09316629 132.30967897 2.09006229 129.64803219 2.08688736 C128.65569866 2.08570696 128.65569866 2.08570696 127.64331799 2.08450272 C117.60547784 2.07226976 107.56768199 2.0511429 97.52986813 2.02536392 C85.87804263 1.99545414 74.22625555 1.97610548 62.57439274 1.9694168 C56.40532866 1.96550725 50.23637447 1.95632417 44.06734562 1.93449211 C38.25864616 1.91410216 32.45010167 1.90785363 26.64136982 1.91235924 C24.5117283 1.91153517 22.3820815 1.90558458 20.25247097 1.89406586 C17.33897491 1.87908264 14.42605964 1.88275005 11.5125494 1.89091873 C10.25618698 1.87781095 10.25618698 1.87781095 8.9744435 1.86443835 C2.5756971 1.91274351 -4.12438004 2.78050429 -9.11881351 7.07590103 C-9.55322758 7.69078384 -9.98764164 8.30566666 -10.43521976 8.93918228 C-11.25588375 10.06847204 -12.10258695 11.18045776 -12.99771976 12.25168228 C-13.65771976 12.25168228 -14.31771976 12.25168228 -14.99771976 12.25168228 C-14.77626005 8.37613722 -14.06058183 7.31175048 -11.18521976 4.56418228 C-7.38977969 1.81062772 -4.73329559 0.00225901 0 0 Z " fill="#000000" transform="translate(335.9977197647095,232.74831771850586)"/>
<path d="M0 0 C0.84732193 0.00359528 1.69464386 0.00719055 2.56764221 0.01089478 C3.89922363 0.01067574 3.89922363 0.01067574 5.25770569 0.01045227 C8.20666404 0.01115174 11.15556006 0.01894568 14.10450745 0.02676392 C16.14332037 0.02862798 18.18213374 0.03005194 20.22094727 0.03105164 C25.59844693 0.03487776 30.97591978 0.04470884 36.35340881 0.05575562 C41.83619321 0.06596771 47.31898192 0.07054882 52.80177307 0.07559204 C63.56806093 0.08633103 74.33432883 0.10340858 85.1006012 0.12442017 C85.1006012 0.45442017 85.1006012 0.78442017 85.1006012 1.12442017 C56.0606012 1.45442017 27.0206012 1.78442017 -2.8993988 2.12442017 C-2.8993988 8.39442017 -2.8993988 14.66442017 -2.8993988 21.12442017 C-3.5593988 21.12442017 -4.2193988 21.12442017 -4.8993988 21.12442017 C-4.88779724 22.41477173 -4.87619568 23.70512329 -4.86424255 25.03457642 C-4.8548576 26.75202288 -4.84575816 28.46947091 -4.8368988 30.18692017 C-4.8285199 31.03447876 -4.82014099 31.88203735 -4.81150818 32.75527954 C-4.80828552 33.58994751 -4.80506287 34.42461548 -4.80174255 35.28457642 C-4.79650574 36.04391479 -4.79126892 36.80325317 -4.78587341 37.58560181 C-4.92985403 40.80550375 -5.40769489 43.94110522 -5.8993988 47.12442017 C-3.93148376 47.15414917 -3.93148376 47.15414917 -1.92381287 47.18447876 C2.94422075 47.26055767 7.81195635 47.34927181 12.67970276 47.44180298 C14.78641374 47.48008322 16.89318987 47.51493776 19.00001526 47.54629517 C22.0285724 47.59196615 25.05668142 47.64995761 28.0849762 47.71035767 C29.02677734 47.72190887 29.96857849 47.73346008 30.93891907 47.74536133 C31.81953003 47.76523102 32.70014099 47.78510071 33.60743713 47.80557251 C34.38020996 47.81889618 35.15298279 47.83221985 35.94917297 47.84594727 C38.35178888 48.15693297 40.00770257 48.93129631 42.1006012 50.12442017 C39.1006012 51.12442017 39.1006012 51.12442017 36.1006012 50.12442017 C34.70997538 50.01630467 33.31504589 49.95869163 31.92042542 49.93496704 C30.66429947 49.90989075 30.66429947 49.90989075 29.38279724 49.88430786 C28.48271942 49.87073242 27.5826416 49.85715698 26.6552887 49.84317017 C25.72967133 49.82476074 24.80405396 49.80635132 23.85038757 49.78738403 C19.88557082 49.70862364 15.92058534 49.64076832 11.95558167 49.57217407 C9.063728 49.52059298 6.17202705 49.46330253 3.2802887 49.40567017 C2.37616241 49.39209473 1.47203613 49.37851929 0.54051208 49.36453247 C-5.78655307 49.2372659 -5.78655307 49.2372659 -6.8993988 48.12442017 C-6.99762625 46.65636725 -7.02738251 45.18364557 -7.02879333 43.71231079 C-7.03352158 42.30580261 -7.03352158 42.30580261 -7.03834534 40.87088013 C-7.03632111 39.85111084 -7.03429687 38.83134155 -7.0322113 37.78067017 C-7.03316803 36.74124268 -7.03412476 35.70181519 -7.03511047 34.63088989 C-7.03579243 32.42837463 -7.03393707 30.22585737 -7.0297699 28.02334595 C-7.02442188 24.63902297 -7.02971439 21.25483273 -7.03611755 17.87051392 C-7.03545678 15.73639904 -7.03417562 13.60228424 -7.0322113 11.46817017 C-7.03423553 10.44840088 -7.03625977 9.42863159 -7.03834534 8.37796021 C-7.03519318 7.44028809 -7.03204102 6.50261597 -7.02879333 5.53652954 C-7.02799774 4.70681641 -7.02720215 3.87710327 -7.02638245 3.02224731 C-6.74428106 -1.19388367 -3.4727789 0.00622362 0 0 Z " fill="#070606" transform="translate(470.89939880371094,394.8755798339844)"/>
<path d="M0 0 C28.71 0 57.42 0 87 0 C86.67 0.99 86.34 1.98 86 3 C75.08234253 3.0694059 64.16473724 3.12276327 53.24690437 3.15543652 C48.17770744 3.17111533 43.10866105 3.19239389 38.03955078 3.22631836 C33.15069975 3.25883298 28.26199384 3.2768363 23.37304306 3.28463173 C21.50464466 3.29018948 19.63625451 3.30104192 17.76791763 3.31719017 C15.15776441 3.33885972 12.54821648 3.34197136 9.93798828 3.34057617 C8.77058105 3.35675491 8.77058105 3.35675491 7.57958984 3.3732605 C5.42947388 3.36076355 5.42947388 3.36076355 2 3 C1.34 2.01 0.68 1.02 0 0 Z " fill="#040404" transform="translate(253,604)"/>
<path d="M0 0 C0.495 0.99 0.495 0.99 1 2 C-2.465 9.425 -2.465 9.425 -6 17 C-40.32 17 -74.64 17 -110 17 C-106.42286669 15.21143334 -105.46748024 14.75008338 -101.79852295 14.75949097 C-100.96843719 14.75674164 -100.13835144 14.75399231 -99.28311157 14.75115967 C-97.93012466 14.7619455 -97.93012466 14.7619455 -96.54980469 14.77294922 C-95.59337067 14.77265717 -94.63693665 14.77236511 -93.65151978 14.77206421 C-90.49154576 14.77345706 -87.3318078 14.78901634 -84.171875 14.8046875 C-81.98040903 14.80841778 -79.78894138 14.81126468 -77.59747314 14.81326294 C-71.83035678 14.82089817 -66.0633412 14.8405458 -60.29626465 14.8626709 C-54.4110653 14.88313164 -48.52584967 14.89226515 -42.640625 14.90234375 C-31.09370573 14.92379172 -19.54686125 14.95792642 -8 15 C-7.78718384 13.58618042 -7.78718384 13.58618042 -7.57006836 12.14379883 C-7.00837639 9.04619393 -6.26562621 7.29020029 -4.5625 4.6875 C-4.13066406 4.01074219 -3.69882812 3.33398438 -3.25390625 2.63671875 C-2 1 -2 1 0 0 Z " fill="#111111" transform="translate(696,509)"/>
<path d="M0 0 C16.83 0 33.66 0 51 0 C51 1.32 51 2.64 51 4 C34.83 4 18.66 4 2 4 C1.67 5.65 1.34 7.3 1 9 C0.04605164 11.02237052 -0.94535351 13.0282696 -2 15 C-2.99 14.67 -3.98 14.34 -5 14 C-4.54363464 12.603522 -4.08480512 11.2078492 -3.625 9.8125 C-3.36976563 9.03519531 -3.11453125 8.25789062 -2.8515625 7.45703125 C-1.98008898 4.94255032 -0.9883515 2.47087874 0 0 Z " fill="#020202" transform="translate(814,561)"/>
<path d="M0 0 C0.33 0 0.66 0 1 0 C1.03738281 0.72445312 1.07476563 1.44890625 1.11328125 2.1953125 C1.58859497 9.1852201 2.1295447 14.34482884 7.5 19.3125 C10.83070343 21.56072481 13.34514065 22.12474541 17.27104187 22.15821838 C18.57721466 22.17290161 18.57721466 22.17290161 19.90977478 22.18788147 C20.86211502 22.19363693 21.81445526 22.1993924 22.7956543 22.20532227 C24.30323807 22.22017166 24.30323807 22.22017166 25.84127808 22.23532104 C29.16890087 22.26695078 32.49653794 22.29169939 35.82421875 22.31640625 C38.12922032 22.3369745 40.43421811 22.35797093 42.73921204 22.37937927 C48.81040384 22.43461326 54.88162976 22.48401673 60.95288086 22.53222656 C67.14635255 22.58243186 73.33977462 22.638123 79.53320312 22.69335938 C91.6887597 22.8009572 103.84435934 22.90239861 116 23 C116.6408498 24.27576537 117.28101756 25.55187337 117.92089844 26.828125 C118.27746521 27.5387207 118.63403198 28.24931641 119.00140381 28.98144531 C120.1461804 31.29548794 121.21523851 33.63483088 122.25 36 C122.58515625 36.763125 122.9203125 37.52625 123.265625 38.3125 C123.50796875 38.869375 123.7503125 39.42625 124 40 C122.515 39.505 122.515 39.505 121 39 C120.3125 36.9375 120.3125 36.9375 120 35 C119.01 35 118.02 35 117 35 C114 28.5 114 28.5 114 24 C65.985 24.495 65.985 24.495 17 25 C17 25.33 17 25.66 17 26 C11.65130078 26.50939993 9.14410399 25.36708449 5 22 C2.34204802 19.21813417 -0.27138144 16.45723711 -2 13 C-1.93755664 10.97626751 -1.80288806 8.95436594 -1.625 6.9375 C-1.53476562 5.85339844 -1.44453125 4.76929688 -1.3515625 3.65234375 C-1 1 -1 1 0 0 Z " fill="#0E0E0E" transform="translate(573,538)"/>
<path d="M0 0 C1.98 0.33 3.96 0.66 6 1 C6 1.99 6 2.98 6 4 C-69.57 4 -145.14 4 -223 4 C-222.67 3.34 -222.34 2.68 -222 2 C-148.74 2 -75.48 2 0 2 C0 1.34 0 0.68 0 0 Z " fill="#141414" transform="translate(602,649)"/>
<path d="M0 0 C0 0.66 0 1.32 0 2 C-0.66 2 -1.32 2 -2 2 C-2 2.66 -2 3.32 -2 4 C-5.31751593 5.65875797 -9.02597054 5.12889303 -12.67236328 5.11352539 C-13.56998383 5.11367142 -14.46760437 5.11381744 -15.39242554 5.1139679 C-18.36841218 5.11326953 -21.34433675 5.10548067 -24.3203125 5.09765625 C-26.38011643 5.0957918 -28.43992081 5.09436802 -30.49972534 5.09336853 C-35.92817402 5.08954548 -41.35659605 5.07971699 -46.78503418 5.06866455 C-52.32152954 5.05844588 -57.85802919 5.05386993 -63.39453125 5.04882812 C-74.26303256 5.03809455 -85.13151406 5.02102065 -96 5 C-96.33 4.01 -96.66 3.02 -97 2 C-95.88135559 1.98969254 -94.76271118 1.97938507 -93.61016846 1.96876526 C-83.07460018 1.87106336 -72.53909139 1.76833224 -62.00362015 1.66066074 C-56.58706949 1.60546621 -51.17051341 1.55205168 -45.75390625 1.50268555 C-40.52785281 1.45499092 -35.30186484 1.40264615 -30.07588959 1.34705925 C-28.08079404 1.32665883 -26.08568056 1.30794193 -24.09055328 1.29092598 C-21.29890961 1.26683086 -18.50738933 1.23678315 -15.71582031 1.20532227 C-14.88863495 1.1995668 -14.06144958 1.19381134 -13.209198 1.18788147 C-8.68791665 1.12985893 -4.45185322 0 0 0 Z " fill="#191919" transform="translate(563,392)"/>
<path d="M0 0 C19.8 0 39.6 0 60 0 C59.67 0.99 59.34 1.98 59 3 C39.53 3 20.06 3 0 3 C0 2.01 0 1.02 0 0 Z " fill="#212121" transform="translate(540,813)"/>
<path d="M0 0 C0.66 0 1.32 0 2 0 C2 8.25 2 16.5 2 25 C4.866875 24.94199219 7.73375 24.88398438 10.6875 24.82421875 C13.48418414 24.7851524 16.28083713 24.75483395 19.07763672 24.7253418 C21.01169587 24.70029759 22.94566131 24.66625189 24.87939453 24.62280273 C27.66983231 24.5617035 30.4590121 24.53368949 33.25 24.51171875 C34.10553467 24.48591232 34.96106934 24.4601059 35.8425293 24.43351746 C43.57682603 24.42995646 48.56881619 27.47327493 54 32.8125 C54.66 33.534375 55.32 34.25625 56 35 C55.505 35.99 55.505 35.99 55 37 C51.15233131 35.71744377 49.94737832 33.70395995 47.5 30.59375 C45.5729385 28.54624716 43.83348087 28.06502431 41.05821228 27.84851074 C40.32478104 27.83598267 39.59134979 27.82345459 38.83569336 27.81054688 C38.00150375 27.79382935 37.16731415 27.77711182 36.30784607 27.7598877 C35.4109053 27.74631226 34.51396454 27.73273682 33.58984375 27.71875 C32.66659805 27.70034058 31.74335236 27.68193115 30.79212952 27.66296387 C26.83834463 27.58424624 22.88438959 27.5164516 18.93041992 27.44775391 C16.04597393 27.39608936 13.16167686 27.33882297 10.27734375 27.28125 C9.37837875 27.26767456 8.47941376 27.25409912 7.5532074 27.2401123 C6.72216995 27.22339478 5.89113251 27.20667725 5.03491211 27.18945312 C4.30227646 27.17692505 3.56964081 27.16439697 2.81480408 27.15148926 C1 27 1 27 -1 26 C-0.67 17.42 -0.34 8.84 0 0 Z " fill="#1B1B1B" transform="translate(466,416)"/>
<path d="M0 0 C5.23481527 2.09392611 6.75637467 5.81625777 9.08203125 10.625 C10 13 10 13 10 16 C26.83 16 43.66 16 61 16 C61 16.66 61 17.32 61 18 C61.66 18 62.32 18 63 18 C62.67 18.66 62.34 19.32 62 20 C61.44403137 19.83923477 60.88806274 19.67846954 60.31524658 19.51283264 C57.80504466 18.95681693 55.52628314 18.84011107 52.95605469 18.79467773 C51.95531921 18.77473251 50.95458374 18.75478729 49.92352295 18.73423767 C48.85047913 18.71752518 47.7774353 18.70081268 46.671875 18.68359375 C45.56773254 18.66281265 44.46359009 18.64203156 43.32598877 18.62062073 C39.80072217 18.55526354 36.27538141 18.49630436 32.75 18.4375 C30.35936735 18.39430164 27.96874218 18.35068693 25.578125 18.30664062 C19.71882827 18.19959628 13.85945786 18.09780415 8 18 C6.66180502 15.3773768 5.3292849 12.75213401 4 10.125 C3.6184375 9.37863281 3.236875 8.63226562 2.84375 7.86328125 C2.4828125 7.14785156 2.121875 6.43242188 1.75 5.6953125 C1.41484375 5.03547363 1.0796875 4.37563477 0.734375 3.69580078 C0 2 0 2 0 0 Z " fill="#141414" transform="translate(806,508)"/>
<path d="M0 0 C3.01250612 1.33095637 4.83640577 2.72528469 7 5.1875 C18.47825874 16.78607591 35.86181633 22.21308375 51.89086914 22.40649414 C55.93566777 22.36193953 59.96074733 22.21899563 64 22 C61.05030513 24.94969487 58.44501713 24.28929158 54.4074707 24.32983398 C32.92619987 24.20952396 18.13172932 20.44727262 2.203125 5.453125 C0 3 0 3 0 0 Z " fill="#0D0D0D" transform="translate(701,586)"/>
<path d="M0 0 C-0.33 1.32 -0.66 2.64 -1 4 C-7.65607988 5.97816206 -14.05743283 7.58420197 -21 8 C-21.65871094 8.05285156 -22.31742188 8.10570312 -22.99609375 8.16015625 C-28.22221529 8.38737893 -33.19112032 7.56212556 -38.3125 6.625 C-39.00674072 6.49899414 -39.70098145 6.37298828 -40.41625977 6.24316406 C-43.88849928 5.56651819 -46.94129034 4.80849158 -50 3 C-42.48340647 3.89179923 -42.48340647 3.89179923 -39.70507812 4.51367188 C-36.8987207 5.01820834 -34.32971376 5.11357382 -31.48046875 5.09765625 C-29.9480957 5.09282227 -29.9480957 5.09282227 -28.38476562 5.08789062 C-26.80211914 5.07532227 -26.80211914 5.07532227 -25.1875 5.0625 C-23.57584961 5.05573242 -23.57584961 5.05573242 -21.93164062 5.04882812 C-19.28770317 5.03707729 -16.64388048 5.02064787 -14 5 C-14.99 4.34 -15.98 3.68 -17 3 C-14.91798472 2.49453964 -12.83432933 1.99583165 -10.75 1.5 C-9.58984375 1.2215625 -8.4296875 0.943125 -7.234375 0.65625 C-4 0 -4 0 0 0 Z " fill="#454545" transform="translate(777,604)"/>
<path d="M0 0 C0.66 0 1.32 0 2 0 C4.48217309 4.96434618 3.71046305 12.96486007 2.46875 18.26953125 C-0.0238673 24.27077834 -3.63184043 29.32704872 -9 33 C-9.66 33 -10.32 33 -11 33 C-11 33.66 -11 34.32 -11 35 C-11.66 35 -12.32 35 -13 35 C-12.65978036 31.82461668 -11.97533396 30.97723135 -9.5625 28.75 C-7 27 -7 27 -5 27 C-4.30580437 25.34461042 -3.64896236 23.67363977 -3 22 C-2.73574219 21.37996094 -2.47148438 20.75992188 -2.19921875 20.12109375 C0.40149829 13.4282532 0.29666487 7.10896928 0 0 Z " fill="#1F1F1F" transform="translate(777,535)"/>
<path d="M0 0 C15.84 0 31.68 0 48 0 C48 0.33 48 0.66 48 1 C33.15 1 18.3 1 3 1 C2.34 3.64 1.68 6.28 1 9 C0.05836649 11.02813371 -0.92239692 13.04072167 -2 15 C-2.99 14.67 -3.98 14.34 -5 14 C-4.54363464 12.603522 -4.08480512 11.2078492 -3.625 9.8125 C-3.36976563 9.03519531 -3.11453125 8.25789062 -2.8515625 7.45703125 C-1.98008898 4.94255032 -0.9883515 2.47087874 0 0 Z " fill="#0E0E0E" transform="translate(814,561)"/>
<path d="M0 0 C-2.85445469 0.9514849 -4.21724364 1.03133099 -7.125 0.875 C-16.37160568 0.81524811 -23.40823174 5.10259626 -31 10 C-31.66 9.34 -32.32 8.68 -33 8 C-23.82280406 -0.77818743 -12.28030219 -5.51180529 0 0 Z " fill="#0B0B0B" transform="translate(762,518)"/>
<path d="M0 0 C0.33 0.66 0.66 1.32 1 2 C-0.07408957 4.60474038 -1.20045633 7.09966038 -2.4375 9.625 C-2.77587891 10.33140625 -3.11425781 11.0378125 -3.46289062 11.765625 C-4.30154879 13.51381384 -5.14987847 15.25735686 -6 17 C-10.95 16.67 -15.9 16.34 -21 16 C-21 15.67 -21 15.34 -21 15 C-16.71 15 -12.42 15 -8 15 C-7.67 13.02 -7.34 11.04 -7 9 C-5.87890625 6.69921875 -5.87890625 6.69921875 -4.5625 4.6875 C-3.91474609 3.67236328 -3.91474609 3.67236328 -3.25390625 2.63671875 C-2 1 -2 1 0 0 Z " fill="#242424" transform="translate(696,509)"/>
<path d="M0 0 C5.75799634 2.82024311 10.66568752 6.38431583 14 12 C13.6875 14.25 13.6875 14.25 13 16 C12.401875 15.175 11.80375 14.35 11.1875 13.5 C7.26986407 8.73961681 2.03469861 5.47403022 -3 2 C-2.01 1.34 -1.02 0.68 0 0 Z " fill="#0B0B0B" transform="translate(790,490)"/>
<path d="M0 0 C0.5775 0.226875 1.155 0.45375 1.75 0.6875 C-1.75558721 4.24435722 -5.35553239 7.65033047 -9.0625 11 C-10.03832031 11.88300781 -11.01414062 12.76601563 -12.01953125 13.67578125 C-12.75558594 14.33964844 -13.49164062 15.00351562 -14.25 15.6875 C-14.58 14.6975 -14.91 13.7075 -15.25 12.6875 C-13.83791833 11.07929588 -12.42013964 9.47609292 -11 7.875 C-10.21109375 6.98167969 -9.4221875 6.08835937 -8.609375 5.16796875 C-3.26267388 -0.45314915 -3.26267388 -0.45314915 0 0 Z " fill="#0A0A0A" transform="translate(714.25,490.3125)"/>
<path d="M0 0 C2.45996775 2.45996775 2.29676247 3.23618554 2.3125 6.625 C2.20044594 12.15566805 1.25462931 17.2341466 -2.34375 21.6484375 C-5.20616635 23.98427725 -8.43108091 24.23941069 -12 25 C-12 24.34 -12 23.68 -12 23 C-11.113125 22.649375 -10.22625 22.29875 -9.3125 21.9375 C-5.2711644 19.57369993 -3.06484809 17.18797817 -1 13 C0.09724998 8.74815634 0.13667793 4.37369361 0 0 Z " fill="#0D0D0D" transform="translate(879,537)"/>
<path d="M0 0 C0.99 0.33 1.98 0.66 3 1 C0.65137797 4.85845048 -0.88061998 7.15338137 -5 9 C-5.33 9.99 -5.66 10.98 -6 12 C-9 14 -9 14 -12 14 C-11.875 12.25 -11.875 12.25 -11 10 C-9.02678947 8.6273318 -7.02456848 7.29572383 -5 6 C-3.97676564 4.68441297 -2.96873032 3.35622245 -2 2 C-1.34 2 -0.68 2 0 2 C0 1.34 0 0.68 0 0 Z " fill="#232323" transform="translate(620,800)"/>
<path d="M0 0 C4.52920554 2.01298024 6.28116397 4.51336764 8.28515625 8.859375 C9.35307283 12.05728912 9.27872824 14.65526112 9 18 C5.83139145 15.34521986 4.49698412 12.16000194 2.8125 8.4375 C2.28269531 7.28121094 1.75289062 6.12492188 1.20703125 4.93359375 C0 2 0 2 0 0 Z " fill="#131313" transform="translate(806,508)"/>
<path d="M0 0 C3.92073811 -0.16336409 6.74669991 -0.07110178 10.5625 1 C15.70157848 2.34316824 20.7205103 2.21966671 26 2.125 C26.96550781 2.11597656 27.93101562 2.10695313 28.92578125 2.09765625 C31.28412099 2.07430635 33.64192286 2.04156047 36 2 C33.0164947 4.9835053 30.26832965 4.29277737 26.18554688 4.32226562 C25.15494141 4.31904297 24.12433594 4.31582031 23.0625 4.3125 C22.06669922 4.32861328 21.07089844 4.34472656 20.04492188 4.36132812 C12.9360823 4.36594126 6.75256741 3.19818151 0 1 C0 0.67 0 0.34 0 0 Z " fill="#060606" transform="translate(729,606)"/>
<path d="M0 0 C0.33 0.66 0.66 1.32 1 2 C1.99 2.33 2.98 2.66 4 3 C5.66666667 4.66666667 7.33333333 6.33333333 9 8 C10.95082205 9.43551056 12.94639121 10.71052471 15 12 C14.01 12.495 14.01 12.495 13 13 C13 13.66 13 14.32 13 15 C8.56579249 13.62547333 6.52132636 11.69684228 3.6875 8.0625 C2.99011719 7.18722656 2.29273438 6.31195312 1.57421875 5.41015625 C0 3 0 3 0 0 Z " fill="#101010" transform="translate(726,555)"/>
<path d="M0 0 C-0.33 0.99 -0.66 1.98 -1 3 C-2.36125 3.6496875 -2.36125 3.6496875 -3.75 4.3125 C-6.74207357 5.86607666 -7.76217226 6.66721841 -9.75 9.1875 C-10.4925 10.115625 -11.235 11.04375 -12 12 C-12.66 12 -13.32 12 -14 12 C-13.77854028 8.12445494 -13.06286207 7.0600682 -10.1875 4.3125 C-4.24324324 0 -4.24324324 0 0 0 Z " fill="#1B1B1B" transform="translate(335,233)"/>
<path d="M0 0 C0.97556564 2.92669691 1.0606341 4.44061321 0.87890625 7.44921875 C0.83056641 8.29677734 0.78222656 9.14433594 0.73242188 10.01757812 C0.67634766 10.89865234 0.62027344 11.77972656 0.5625 12.6875 C0.51029297 13.58017578 0.45808594 14.47285156 0.40429688 15.39257812 C0.2747182 17.5954156 0.13975754 19.79778873 0 22 C-0.66 21.67 -1.32 21.34 -2 21 C-3.9248938 15.03282923 -3.87442699 8.11319855 -1.5 2.375 C-1.005 1.59125 -0.51 0.8075 0 0 Z " fill="#090909" transform="translate(726,532)"/>
<path d="M0 0 C0.825 0.165 1.65 0.33 2.5 0.5 C8.85824321 1.40832046 14.71338807 1.04776866 21 0 C20.34 0.66 19.68 1.32 19 2 C18.01 2 17.02 2 16 2 C16 2.66 16 3.32 16 4 C13.91695462 4.05418326 11.83350232 4.09287551 9.75 4.125 C8.00976562 4.15980469 8.00976562 4.15980469 6.234375 4.1953125 C3.17213954 4.0103949 1.55797249 3.60823023 -1 2 C-0.67 1.34 -0.34 0.68 0 0 Z " fill="#0B0B0B" transform="translate(742,569)"/>
<path d="M0 0 C0.66 0 1.32 0 2 0 C2 1.65 2 3.3 2 5 C2.99 4.67 3.98 4.34 5 4 C5.41572266 4.93972656 5.41572266 4.93972656 5.83984375 5.8984375 C6.20207031 6.71570313 6.56429688 7.53296875 6.9375 8.375 C7.29714844 9.18710937 7.65679687 9.99921875 8.02734375 10.8359375 C8.6569903 12.23683785 9.31312642 13.62625284 10 15 C7.75 15 7.75 15 5 14 C1.945007 9.7893353 0.5151582 5.15158199 0 0 Z " fill="#1F1F1F" transform="translate(339,793)"/>
<path d="M0 0 C0.66 0 1.32 0 2 0 C1.875 1.75 1.875 1.75 1 4 C-3.13702481 7.34902008 -6.92810949 8.78274628 -12 10 C-12 9.01 -12 8.02 -12 7 C-11.21753906 6.57847656 -10.43507813 6.15695312 -9.62890625 5.72265625 C-8.61699219 5.17480469 -7.60507812 4.62695312 -6.5625 4.0625 C-5.55316406 3.51722656 -4.54382813 2.97195313 -3.50390625 2.41015625 C-1.13329507 1.22300532 -1.13329507 1.22300532 0 0 Z " fill="#0A0A0A" transform="translate(791,595)"/>
<path d="M0 0 C0 0.66 0 1.32 0 2 C-1.32 2 -2.64 2 -4 2 C-4 2.66 -4 3.32 -4 4 C-0.37 4 3.26 4 7 4 C7 4.33 7 4.66 7 5 C1.39 5 -4.22 5 -10 5 C-9.34 4.34 -8.68 3.68 -8 3 C-9.32 2.34 -10.64 1.68 -12 1 C-7.9472484 0.01751476 -4.16138263 -0.08159574 0 0 Z " fill="#2D2D2C" transform="translate(753,477)"/>
<path d="M0 0 C2.22808159 -0.10853983 4.45769932 -0.18583307 6.6875 -0.25 C7.92886719 -0.29640625 9.17023437 -0.3428125 10.44921875 -0.390625 C14.5554638 0.06110713 16.15539619 1.06293296 19 4 C19 4.66 19 5.32 19 6 C19.66 6.66 20.32 7.32 21 8 C18.14793973 7.5612215 16.78467273 6.83719158 14.4375 5.0625 C10.17450307 2.03323862 5.06876494 1.68545576 0 1 C0 0.67 0 0.34 0 0 Z " fill="#3A3B3A" transform="translate(750,518)"/>
<path d="M0 0 C3.40040734 1.13346911 4.53729252 2.46266502 7 5 C8.31558703 6.02323436 9.64377755 7.03126968 11 8 C8.875 8.8125 8.875 8.8125 6 9 C0.36666667 5.1 0.36666667 5.1 -1 1 C-0.67 0.67 -0.34 0.34 0 0 Z " fill="#121212" transform="translate(240,595)"/>
<path d="M0 0 C0.7734375 0.7115625 0.7734375 0.7115625 1.5625 1.4375 C0.9025 2.0975 0.2425 2.7575 -0.4375 3.4375 C-3.22265625 3.046875 -3.22265625 3.046875 -6.5 2.1875 C-7.58410156 1.91421875 -8.66820312 1.6409375 -9.78515625 1.359375 C-12.4375 0.4375 -12.4375 0.4375 -13.4375 -1.5625 C-8.78641127 -3.23689194 -4.13501749 -2.65065224 0 0 Z " fill="#111111" transform="translate(774.4375,481.5625)"/>
<path d="M0 0 C3.79403384 1.26467795 4.06684293 2.61697513 6 6 C7.58245275 7.75149165 7.58245275 7.75149165 9 9 C8.67 9.66 8.34 10.32 8 11 C4.19510255 9.50521886 2.33809165 7.30557786 0 4 C-0.33 3.01 -0.66 2.02 -1 1 C-0.67 0.67 -0.34 0.34 0 0 Z " fill="#151515" transform="translate(320,382)"/>
<path d="M0 0 C3.15886495 0.07521107 5.30084288 0.37477673 7.69921875 2.51953125 C10.13433773 5.32021289 11.81517013 7.4455104 13 11 C12.34 11 11.68 11 11 11 C10.34 10.34 9.68 9.68 9 9 C7.2283264 7.49992731 5.44395752 6.01607498 3.65625 4.53515625 C2 3 2 3 0 0 Z " fill="#0E0E0E" transform="translate(561,235)"/>
<path d="M0 0 C1.875 0.1875 1.875 0.1875 4 1 C5.90962111 4.71908726 6.27115715 7.85319836 6.25 12 C6.25515625 13.010625 6.2603125 14.02125 6.265625 15.0625 C5.99363426 18.0703976 5.26321118 20.27306793 4 23 C3 20 3 20 4 17 C4.06802967 15.27204648 4.08495645 13.54164635 4.0625 11.8125 C4.05347656 10.91144531 4.04445313 10.01039063 4.03515625 9.08203125 C4.02355469 8.39496094 4.01195312 7.70789063 4 7 C3.34 6.67 2.68 6.34 2 6 C1.27306096 4.02111039 0.60183749 2.02045442 0 0 Z " fill="#2E2E2E" transform="translate(876,532)"/>
<path d="M0 0 C-0.55429688 0.39832031 -1.10859375 0.79664063 -1.6796875 1.20703125 C-2.40414062 1.73683594 -3.12859375 2.26664062 -3.875 2.8125 C-4.59429687 3.33457031 -5.31359375 3.85664063 -6.0546875 4.39453125 C-8.23028655 6.03272777 -8.23028655 6.03272777 -10 9 C-10.99 9 -11.98 9 -13 9 C-11.64908476 4.57882285 -9.8349855 2.556657 -6 0 C-2.55737705 -1.27868852 -2.55737705 -1.27868852 0 0 Z " fill="#161616" transform="translate(251,445)"/>
<path d="M0 0 C0.66 0 1.32 0 2 0 C3.2077558 3.62326739 2.54311128 4.64146369 1 8 C0.34 8 -0.32 8 -1 8 C-1.99 11.465 -1.99 11.465 -3 15 C-4.15782198 11.61915982 -3.83835147 9.70336781 -2.625 6.375 C-2.34914063 5.59898437 -2.07328125 4.82296875 -1.7890625 4.0234375 C-1 2 -1 2 0 0 Z " fill="#353535" transform="translate(574,531)"/>
<path d="M0 0 C0.99 0.33 1.98 0.66 3 1 C1.71451591 2.33929505 0.42141845 3.67128643 -0.875 5 C-1.59429688 5.7425 -2.31359375 6.485 -3.0546875 7.25 C-5 9 -5 9 -7 9 C-7.33 8.01 -7.66 7.02 -8 6 C-6.7391988 4.96680187 -5.46596742 3.94875621 -4.1875 2.9375 C-3.47980469 2.36902344 -2.77210938 1.80054688 -2.04296875 1.21484375 C-1.36878906 0.81394531 -0.69460938 0.41304687 0 0 Z " fill="#131313" transform="translate(801,587)"/>
<path d="M0 0 C0.33 0.66 0.66 1.32 1 2 C-0.4726862 5.27263601 -1.42695432 6.72014048 -4.6875 8.3125 C-5.450625 8.539375 -6.21375 8.76625 -7 9 C-7 9.66 -7 10.32 -7 11 C-7.66 11 -8.32 11 -9 11 C-8.65978036 7.82461668 -7.97533396 6.97723135 -5.5625 4.75 C-3 3 -3 3 -1 3 C-0.67 2.01 -0.34 1.02 0 0 Z " fill="#181818" transform="translate(773,559)"/>
<path d="M0 0 C0.969375 0.309375 1.93875 0.61875 2.9375 0.9375 C7.23664491 2.17967097 11.55342634 2.61684853 16 3 C16 3.33 16 3.66 16 4 C14.35 4.33 12.7 4.66 11 5 C11 5.33 11 5.66 11 6 C9.02 6 7.04 6 5 6 C5 5.34 5 4.68 5 4 C3.35178756 2.96986723 1.68496298 1.96885372 0 1 C0 0.67 0 0.34 0 0 Z " fill="#080808" transform="translate(579,558)"/>
<path d="M0 0 C1.093125 0.226875 2.18625 0.45375 3.3125 0.6875 C1.1369694 2.8630306 -0.24723892 3.40629553 -3.125 4.375 C-3.90746094 4.64699219 -4.68992187 4.91898437 -5.49609375 5.19921875 C-7.6875 5.6875 -7.6875 5.6875 -10.6875 4.6875 C-10.089375 4.419375 -9.49125 4.15125 -8.875 3.875 C-6.62904725 2.84496454 -6.62904725 2.84496454 -5.375 1 C-3.6875 -0.3125 -3.6875 -0.3125 0 0 Z " fill="#060606" transform="translate(734.6875,480.3125)"/>
<path d="M0 0 C0.66 0.99 1.32 1.98 2 3 C1.01 4.98 0.02 6.96 -1 9 C-1.99 8.67 -2.98 8.34 -4 8 C-2.25 2.25 -2.25 2.25 0 0 Z " fill="#181818" transform="translate(813,567)"/>
<path d="M0 0 C2 2 2 2 2.265625 4.20703125 C2.21379833 12.84912813 2.21379833 12.84912813 0 17 C-0.66 17 -1.32 17 -2 17 C-1.855625 16.505 -1.71125 16.01 -1.5625 15.5 C-0.41095461 10.38202048 0.16380361 5.24171547 0 0 Z " fill="#050505" transform="translate(879,537)"/>
<path d="M0 0 C2.60045875 2.3024119 3.84739183 4.49896677 5.1875 7.6875 C5.53167969 8.49574219 5.87585938 9.30398438 6.23046875 10.13671875 C6.48441406 10.75160156 6.73835937 11.36648438 7 12 C6.01 11.67 5.02 11.34 4 11 C3.3125 8.9375 3.3125 8.9375 3 7 C2.01 7 1.02 7 0 7 C-1.04449911 3.86650268 -0.93423645 3.01031744 0 0 Z " fill="#080808" transform="translate(690,566)"/>
<path d="M0 0 C0.99 0 1.98 0 3 0 C3 0.66 3 1.32 3 2 C4.32 2.33 5.64 2.66 7 3 C7 3.33 7 3.66 7 4 C3.37 4 -0.26 4 -4 4 C-4 3.34 -4 2.68 -4 2 C-2.68 2 -1.36 2 0 2 C0 1.34 0 0.68 0 0 Z " fill="#050505" transform="translate(753,477)"/>
<path d="M0 0 C4.29 0.33 8.58 0.66 13 1 C13 1.66 13 2.32 13 3 C11.20906809 3.08086147 9.41710372 3.13912702 7.625 3.1875 C6.12839844 3.23970703 6.12839844 3.23970703 4.6015625 3.29296875 C3.74304688 3.19628906 2.88453125 3.09960938 2 3 C1.34 2.01 0.68 1.02 0 0 Z " fill="#010101" transform="translate(253,604)"/>
<path d="M0 0 C0.33 0.66 0.66 1.32 1 2 C0.00390625 4.3828125 0.00390625 4.3828125 -1.4375 7.125 C-1.91058594 8.03507813 -2.38367188 8.94515625 -2.87109375 9.8828125 C-3.24363281 10.58148437 -3.61617187 11.28015625 -4 12 C-4.66 11.34 -5.32 10.68 -6 10 C-4.79157144 5.56909529 -3.48331435 3.01887244 0 0 Z " fill="#080808" transform="translate(696,509)"/>
<path d="M0 0 C-0.33 1.32 -0.66 2.64 -1 4 C-3.64 4 -6.28 4 -9 4 C-8.34 3.67 -7.68 3.34 -7 3 C-7 2.34 -7 1.68 -7 1 C-4 0 -4 0 0 0 Z " fill="#0B0B0B" transform="translate(777,604)"/>
<path d="M0 0 C1.32 0.33 2.64 0.66 4 1 C4.625 2.75 4.625 2.75 5 5 C4.34 6.32 3.68 7.64 3 9 C2.01 6.03 1.02 3.06 0 0 Z " fill="#151515" transform="translate(686,561)"/>
<path d="M0 0 C2.31 1.98 4.62 3.96 7 6 C6.67 6.66 6.34 7.32 6 8 C1.8575633 6.61918777 0.67796901 4.40174442 -2 1 C-1.34 0.67 -0.68 0.34 0 0 Z " fill="#131313" transform="translate(515,445)"/>
<path d="M0 0 C-1.8125 2 -1.8125 2 -4 4 C-4.99 4 -5.98 4 -7 4 C-6.625 2.0625 -6.625 2.0625 -6 0 C-3.50907189 -1.24546405 -2.58919267 -0.7767578 0 0 Z " fill="#0E0E0E" transform="translate(615,810)"/>
<path d="M0 0 C0.66 0.33 1.32 0.66 2 1 C1.04882866 2.1725131 0.08882991 3.33787015 -0.875 4.5 C-1.40867187 5.1496875 -1.94234375 5.799375 -2.4921875 6.46875 C-2.98976563 6.9740625 -3.48734375 7.479375 -4 8 C-4.66 8 -5.32 8 -6 8 C-5.75 5.625 -5.75 5.625 -5 3 C-3 1.75 -3 1.75 -1 1 C-0.67 0.67 -0.34 0.34 0 0 Z " fill="#060606" transform="translate(327,237)"/>
<path d="M0 0 C2.86697492 1.28519565 4.97607712 2.57129254 7 5 C7 5.66 7 6.32 7 7 C4.20171644 6.61402985 3.1794116 6.19863427 1.25 4.0625 C0 2 0 2 0 0 Z " fill="#090909" transform="translate(768,522)"/>
<path d="M0 0 C0 0.66 0 1.32 0 2 C-0.66 2 -1.32 2 -2 2 C-2 2.66 -2 3.32 -2 4 C-3.65 4 -5.3 4 -7 4 C-7 3.01 -7 2.02 -7 1 C-4.50935112 0.31292445 -2.62113708 0 0 0 Z " fill="#0D0D0D" transform="translate(563,392)"/>
<path d="M0 0 C0.6875 1.75 0.6875 1.75 1 4 C-0.4375 6.25 -0.4375 6.25 -2 8 C-2.6875 6.25 -2.6875 6.25 -3 4 C-1.5625 1.75 -1.5625 1.75 0 0 Z M-4 6 C-3.67 6.99 -3.34 7.98 -3 9 C-3.66 9 -4.32 9 -5 9 C-4.67 8.01 -4.34 7.02 -4 6 Z " fill="#101010" transform="translate(808,576)"/>
<path d="M0 0 C2.88575819 0.39803561 3.82189513 0.79009069 5.75 3.0625 C6.1625 3.701875 6.575 4.34125 7 5 C6.01 5.33 5.02 5.66 4 6 C2.62437146 4.71034824 1.29233607 3.37310707 0 2 C0 1.34 0 0.68 0 0 Z " fill="#0D0D0D" transform="translate(871,527)"/>
<path d="M0 0 C-1.62339805 1.70884005 -3.29319053 3.37446717 -5 5 C-5.66 5 -6.32 5 -7 5 C-7.33 4.01 -7.66 3.02 -8 2 C-5.44123378 -0.55876622 -3.37797483 -1.68898741 0 0 Z " fill="#070707" transform="translate(583,528)"/>
<path d="M0 0 C-3.96 1.98 -3.96 1.98 -8 4 C-8.33 2.68 -8.66 1.36 -9 0 C-2.25 -1.125 -2.25 -1.125 0 0 Z " fill="#212121" transform="translate(874,561)"/>
<path d="M0 0 C-1.41519715 2.0343459 -2.54982123 2.90410393 -4.98046875 3.421875 C-6.98176954 3.66273952 -8.9909944 3.83532741 -11 4 C-7.64191281 0.32209498 -4.88401581 -0.13200043 0 0 Z " fill="#3A3A3A" transform="translate(590,524)"/>
<path d="M0 0 C2.97 0.495 2.97 0.495 6 1 C6 1.99 6 2.98 6 4 C4.02 4 2.04 4 0 4 C0 2.68 0 1.36 0 0 Z " fill="#191919" transform="translate(602,649)"/>
<path d="M0 0 C0.86625 0.2784375 0.86625 0.2784375 1.75 0.5625 C4.20692525 1.04023546 5.64397534 0.75729364 8 0 C6.02579865 2.52259061 5.03254358 2.9929808 1.8125 3.6875 C0.4203125 3.8421875 0.4203125 3.8421875 -1 4 C-0.34 3.67 0.32 3.34 1 3 C0.67 2.01 0.34 1.02 0 0 Z " fill="#464646" transform="translate(776,603)"/>
<path d="M0 0 C0.99 0.33 1.98 0.66 3 1 C1.69593116 3.01920337 0.36176581 5.01924973 -1 7 C-1.33 7 -1.66 7 -2 7 C-2.125 4.625 -2.125 4.625 -2 2 C-1.34 1.34 -0.68 0.68 0 0 Z " fill="#454545" transform="translate(570,385)"/>
<path d="M0 0 C0.33 1.32 0.66 2.64 1 4 C-1.31 3.67 -3.62 3.34 -6 3 C-6 2.34 -6 1.68 -6 1 C-3.92446352 0.4465236 -2.15634036 0 0 0 Z " fill="#383838" transform="translate(740,478)"/>
</svg>
